<svg width="32" height="32" viewBox="0 0 32 32" fill="none" xmlns="http://www.w3.org/2000/svg">
<g clip-path="url(#clip0_27_2183)">
<path d="M31.7568 9.3719L22.6281 0.243072C22.4725 0.087434 22.2614 0 22.0411 0H5.63714C2.52881 0 0 2.52881 0 5.63714V26.363C0 29.4713 2.52881 32.0001 5.63714 32.0001H26.363C29.4713 32.0001 32.0001 29.4713 32.0001 26.363V9.95876C32 9.73865 31.9124 9.52753 31.7568 9.3719ZM22.7328 2.69565L29.3042 9.26703H22.7328V2.69565ZM26.3629 30.3399H5.63714C3.44423 30.3399 1.66014 28.5558 1.66014 26.3629V5.63714C1.66014 3.44423 3.44423 1.66014 5.63714 1.66014H21.0727V10.0971C21.0727 10.5554 21.4444 10.9272 21.9028 10.9272H30.3397V26.3629C30.3399 28.5558 28.5558 30.3399 26.3629 30.3399Z" fill="black"/>
<path d="M14.3637 7.24913C13.552 6.43746 12.4729 5.99047 11.3251 5.99047C10.1773 5.99047 9.09816 6.43746 8.28649 7.24913C7.47482 8.0608 7.02783 9.13989 7.02783 10.2877C7.02783 11.4356 7.47482 12.5147 8.28649 13.3263L16.7997 21.8395C17.9005 22.9402 19.6911 22.9399 20.7916 21.8395C21.8922 20.7389 21.8922 18.9483 20.7916 17.8476L12.3625 9.4188C12.0384 9.09465 11.5127 9.09465 11.1887 9.4188C10.8646 9.74294 10.8646 10.2685 11.1887 10.5927L19.6176 19.0216C20.0708 19.4748 20.0708 20.2125 19.6176 20.6657C19.1644 21.1189 18.4269 21.1189 17.9735 20.6657L9.46035 12.1526C8.96217 11.6544 8.68797 10.9922 8.68797 10.2879C8.68797 9.58343 8.96231 8.92117 9.46035 8.42313C10.4887 7.39481 12.1615 7.39481 13.1899 8.42313L22.1098 17.3431C23.71 18.9433 23.71 21.5471 22.1098 23.1473C21.3346 23.9225 20.304 24.3494 19.2077 24.3494C18.1115 24.3494 17.0808 23.9225 16.3057 23.1473L9.44748 16.289C9.12334 15.9649 8.59763 15.9649 8.27363 16.289C7.94949 16.6131 7.94949 17.1387 8.27363 17.4629L15.1318 24.321C16.2206 25.4098 17.6681 26.0094 19.2077 26.0094C20.7474 26.0094 22.195 25.4098 23.2836 24.321C24.3723 23.2323 24.972 21.7848 24.972 20.245C24.972 18.7053 24.3724 17.2577 23.2836 16.1691L14.3637 7.24913Z" fill="black"/>
</g>
<defs>
<clipPath id="clip0_27_2183">
<rect width="32" height="32" fill="white"/>
</clipPath>
</defs>
</svg>
