<svg width="26" height="27" viewBox="0 0 26 27" fill="none" xmlns="http://www.w3.org/2000/svg">
<g clip-path="url(#clip0_79_462)">
<path d="M4.33333 3.42145H21.6667C21.954 3.42145 22.2295 3.53558 22.4327 3.73875C22.6359 3.94191 22.75 4.21746 22.75 4.50478V21.8381C22.75 22.1254 22.6359 22.401 22.4327 22.6041C22.2295 22.8073 21.954 22.9214 21.6667 22.9214H4.33333C4.04602 22.9214 3.77047 22.8073 3.5673 22.6041C3.36414 22.401 3.25 22.1254 3.25 21.8381V4.50478C3.25 4.21746 3.36414 3.94191 3.5673 3.73875C3.77047 3.53558 4.04602 3.42145 4.33333 3.42145V3.42145ZM11.9199 17.5048L19.5791 9.84453L18.0473 8.3127L11.9199 14.4411L8.85517 11.3764L7.32333 12.9082L11.9199 17.5048Z" fill="#049ED9"/>
</g>
<defs>
<clipPath id="clip0_79_462">
<rect width="26" height="26" fill="white" transform="translate(0 0.171448)"/>
</clipPath>
</defs>
</svg>
