<svg width="42" height="41" viewBox="0 0 42 41" fill="none" xmlns="http://www.w3.org/2000/svg">
<path d="M37.3701 37.3604C36.9794 37.3604 36.6082 37.2113 36.3347 36.9504L23.8712 25.063C23.3047 24.5226 23.3047 23.6283 23.8712 23.088L38.972 8.68514C39.3432 8.33112 39.9097 8.2007 40.4176 8.33112C40.9255 8.48018 41.316 8.87146 41.4333 9.35591C41.8044 10.9397 42 12.7097 42 14.7593V25.9387C42 31.0999 40.8669 34.5841 38.4055 36.9504C38.132 37.2113 37.7217 37.2672 37.3701 37.3604ZM26.9771 24.0755L37.2529 33.8761C38.4836 32.0688 39.0697 29.4975 39.0697 25.9387V14.7593C39.0697 13.9954 39.0499 13.2873 38.9913 12.6166L26.9771 24.0755Z" fill="#049ED9"/>
<path d="M9.80672 39.8757C9.68951 39.8757 9.59187 39.8571 9.47466 39.8385C3.00846 38.4224 0 34.0065 0 25.9387V14.7593C0 4.6419 4.5322 0.319183 15.1399 0.319183H26.8611C35.3199 0.319183 39.9498 3.18859 41.4344 9.35591C41.5517 9.82172 41.3954 10.3248 41.0437 10.6602L10.8421 39.4658C10.5686 39.7267 10.1974 39.8757 9.80672 39.8757ZM15.1399 3.11404C6.1341 3.11404 2.9303 6.16975 2.9303 14.7593V25.9387C2.9303 32.4042 4.80571 35.6462 9.35745 36.9318L38.3674 9.26273C37.039 4.92138 33.6203 3.13265 26.8416 3.13265H15.1399V3.11404Z" fill="#049ED9"/>
<path d="M26.8618 40.3786H15.1406C12.9917 40.3786 11.1554 40.2109 9.47535 39.8382C8.94789 39.7265 8.53761 39.3538 8.40087 38.8694C8.24458 38.3849 8.40087 37.8632 8.77204 37.4906L23.8729 23.0877C24.4395 22.5474 25.3772 22.5474 25.9437 23.0877L38.4072 34.9752C38.6807 35.236 38.837 35.5901 38.837 35.9627C38.837 36.3354 38.6807 36.6894 38.4072 36.9502C35.9262 39.2979 32.2731 40.3786 26.8618 40.3786ZM12.894 37.5092C13.5973 37.5651 14.3396 37.5837 15.1406 37.5837H26.8618C30.6126 37.5837 33.289 37.0248 35.1839 35.8509L24.9083 26.0503L12.894 37.5092Z" fill="#049ED9"/>
<path d="M15.3723 22.7898C14.1416 22.7898 12.9108 22.3613 11.9341 21.4856C8.82793 18.6721 7.57773 15.5792 8.32007 12.5607C9.06242 9.46777 11.895 7.38092 15.3723 7.38092C18.8497 7.38092 21.6823 9.46777 22.4246 12.5607C23.1474 15.5978 21.8972 18.6721 18.7911 21.4856C17.8338 22.3427 16.603 22.7898 15.3723 22.7898ZM11.1722 13.1756C10.5471 15.7096 12.3443 17.9829 13.9657 19.4548C14.7667 20.1813 15.9974 20.1813 16.7789 19.4548C18.3808 18.0015 20.1781 15.7282 19.5725 13.1756C19.045 10.9583 16.9742 10.1571 15.3723 10.1571C13.7704 10.1571 11.7192 10.9583 11.1722 13.1756Z" fill="#049ED9"/>
<path d="M15.4337 15.6727C14.3593 15.6727 13.4802 14.8342 13.4802 13.8095C13.4802 12.7847 14.3397 11.9462 15.4337 11.9462H15.4533C16.5277 11.9462 17.4068 12.7847 17.4068 13.8095C17.4068 14.8342 16.5081 15.6727 15.4337 15.6727Z" fill="#049ED9"/>
</svg>
