<svg width="42" height="39" viewBox="0 0 42 39" fill="none" xmlns="http://www.w3.org/2000/svg">
<path d="M40.3612 38.3192H7.2942C3.2678 38.3192 0 35.3249 0 31.6356V1.33672C0 0.605978 0.661341 0 1.45884 0C2.25634 0 2.91768 0.605978 2.91768 1.33672V31.6356C2.91768 33.8456 4.88225 35.6458 7.2942 35.6458H40.3612C41.1587 35.6458 41.8201 36.2517 41.8201 36.9825C41.8201 37.7132 41.1587 38.3192 40.3612 38.3192Z" fill="#049ED9"/>
<path d="M7.29394 29.4074C6.96327 29.4074 6.61315 29.3005 6.34083 29.0866C5.73785 28.6054 5.66004 27.7677 6.18522 27.1974L15.1133 17.6443C16.0859 16.6106 17.4863 15.9868 18.9646 15.9333C20.4429 15.8977 21.9017 16.3967 22.9521 17.3591L24.8 19.0523C25.2863 19.4979 25.9087 19.7117 26.6089 19.7117C27.2897 19.6939 27.9122 19.4088 28.3595 18.9275L37.2876 9.37452C37.8128 8.82201 38.727 8.75072 39.3495 9.23193C39.9525 9.71315 40.0303 10.5508 39.5051 11.1212L30.577 20.6742C29.6044 21.7079 28.2039 22.3317 26.7256 22.3852C25.2279 22.4208 23.7885 21.9218 22.7381 20.9593L20.9097 19.2662C20.4235 18.8206 19.7816 18.5889 19.1008 18.6067C18.42 18.6246 17.7975 18.9097 17.3502 19.3909L8.42211 28.944C8.11089 29.247 7.70242 29.4074 7.29394 29.4074Z" fill="#049ED9"/>
</svg>
