<svg width="37" height="32" viewBox="0 0 37 32" fill="none" xmlns="http://www.w3.org/2000/svg">
<path d="M24.2528 31.1408C23.5276 31.1408 22.8025 30.996 22.2122 30.7226L13.3584 26.4923C12.8525 26.251 11.8575 26.2671 11.3684 26.5405L7.38848 28.712C5.66833 29.6449 3.89758 29.7736 2.56531 29.0176C1.21617 28.2777 0.457275 26.7657 0.457275 24.8677V9.23326C0.457275 7.76954 1.46913 6.11281 2.80141 5.389L10.1036 1.39998C11.3347 0.724417 13.2067 0.676162 14.4715 1.28738L23.3253 5.51768C23.8312 5.75895 24.8093 5.72678 25.3153 5.46942L29.2784 3.31406C30.9985 2.38115 32.7693 2.25247 34.1015 3.00845C35.4507 3.74835 36.2096 5.26032 36.2096 7.15832V22.8089C36.2096 24.2726 35.1977 25.9293 33.8654 26.6531L26.5632 30.6421C25.9224 30.9638 25.0792 31.1408 24.2528 31.1408ZM12.4309 23.9187C13.1561 23.9187 13.8812 24.0635 14.4715 24.3369L23.3253 28.5672C23.8312 28.8085 24.8093 28.7763 25.3153 28.519L32.6175 24.5299C33.1571 24.2404 33.6799 23.3718 33.6799 22.7928V7.14224C33.6799 6.1289 33.3764 5.37291 32.8199 5.08339C32.2802 4.79386 31.437 4.90646 30.5263 5.40508L26.5632 7.56044C25.3321 8.236 23.4602 8.28426 22.1954 7.67303L13.3416 3.44274C12.8356 3.20147 11.8575 3.23364 11.3516 3.491L4.04936 7.48002C3.50971 7.76954 2.98691 8.63812 2.98691 9.23326V24.8838C2.98691 25.8971 3.29047 26.6531 3.83013 26.9426C4.36978 27.2483 5.213 27.1196 6.14053 26.621L10.1036 24.4656C10.7613 24.0956 11.6045 23.9187 12.4309 23.9187Z" fill="white"/>
<path d="M12.2985 25.2534C11.6071 25.2534 11.0337 24.7065 11.0337 24.0471V3.13687C11.0337 2.47739 11.6071 1.93051 12.2985 1.93051C12.9899 1.93051 13.5633 2.47739 13.5633 3.13687V24.0471C13.5633 24.7065 12.9899 25.2534 12.2985 25.2534Z" fill="white"/>
<path d="M24.3901 30.079C23.6986 30.079 23.1252 29.5321 23.1252 28.8726V7.35125C23.1252 6.69178 23.6986 6.1449 24.3901 6.1449C25.0815 6.1449 25.6549 6.69178 25.6549 7.35125V28.8726C25.6549 29.5321 25.0815 30.079 24.3901 30.079Z" fill="white"/>
</svg>
