<svg width="28" height="30" viewBox="0 0 28 30" fill="none" xmlns="http://www.w3.org/2000/svg">
<path d="M13.7428 18.0185C10.629 18.0185 8.08539 15.6064 8.08539 12.6226C8.08539 9.63892 10.629 7.24075 13.7428 7.24075C16.8565 7.24075 19.4002 9.65286 19.4002 12.6366C19.4002 15.6203 16.8565 18.0185 13.7428 18.0185ZM13.7428 9.33217C11.8424 9.33217 10.2782 10.8101 10.2782 12.6366C10.2782 14.4631 11.8278 15.941 13.7428 15.941C15.6578 15.941 17.2074 14.4631 17.2074 12.6366C17.2074 10.8101 15.6432 9.33217 13.7428 9.33217Z" fill="white"/>
<path d="M13.7411 29.9955C11.5775 29.9955 9.39936 29.2147 7.70361 27.667C3.39116 23.7073 -1.37447 17.3912 0.423603 9.87602C2.04626 3.05799 8.28835 0.0045166 13.7411 0.0045166H13.7557C19.2084 0.0045166 25.4505 3.05799 27.0731 9.88996C28.8566 17.4051 24.091 23.7073 19.7785 27.667C18.0828 29.2147 15.9046 29.9955 13.7411 29.9955ZM13.7411 2.09594C9.48707 2.09594 4.01975 4.25707 2.57252 10.3361C0.993724 16.9032 5.3208 22.564 9.23855 26.1473C11.7676 28.4757 15.7292 28.4757 18.2582 26.1473C22.1613 22.564 26.4884 16.9032 24.9388 10.3361C23.477 4.25707 17.995 2.09594 13.7411 2.09594Z" fill="white"/>
</svg>
