<svg width="38" height="37" viewBox="0 0 38 37" fill="none" xmlns="http://www.w3.org/2000/svg">
<path d="M37.3496 18.5C37.3496 8.77766 29.0431 0.855103 18.8496 0.855103C8.65611 0.855103 0.349609 8.77766 0.349609 18.5C0.349609 23.617 2.66211 28.2223 6.32511 31.4514C6.32511 31.469 6.32511 31.469 6.30661 31.4867C6.49161 31.6631 6.71361 31.8043 6.89861 31.9631C7.00961 32.0513 7.10211 32.1395 7.21311 32.2101C7.54611 32.4748 7.91611 32.7218 8.26761 32.9688C8.39711 33.057 8.50811 33.1276 8.63761 33.2159C8.98911 33.4452 9.35911 33.657 9.74761 33.8511C9.87711 33.9216 10.0251 34.0099 10.1546 34.0805C10.5246 34.2745 10.9131 34.451 11.3201 34.6098C11.4681 34.6804 11.6161 34.751 11.7641 34.8039C12.1711 34.9627 12.5781 35.1039 12.9851 35.2274C13.1331 35.2803 13.2811 35.3332 13.4291 35.3685C13.8731 35.492 14.3171 35.5979 14.7611 35.7038C14.8906 35.7391 15.0201 35.7744 15.1681 35.792C15.6861 35.8979 16.2041 35.9685 16.7406 36.0214C16.8146 36.0214 16.8886 36.039 16.9626 36.0567C17.5916 36.1096 18.2206 36.1449 18.8496 36.1449C19.4786 36.1449 20.1076 36.1096 20.7181 36.0567C20.7921 36.0567 20.8661 36.039 20.9401 36.0214C21.4766 35.9685 21.9946 35.8979 22.5126 35.792C22.6421 35.7744 22.7716 35.7214 22.9196 35.7038C23.3636 35.5979 23.8261 35.5097 24.2516 35.3685C24.3996 35.3156 24.5476 35.2627 24.6956 35.2274C25.1026 35.0862 25.5281 34.9627 25.9166 34.8039C26.0646 34.751 26.2126 34.6804 26.3606 34.6098C26.7491 34.451 27.1376 34.2745 27.5261 34.0805C27.6741 34.0099 27.8036 33.9216 27.9331 33.8511C28.3031 33.6393 28.6731 33.4452 29.0431 33.2159C29.1726 33.1453 29.2836 33.057 29.4131 32.9688C29.7831 32.7218 30.1346 32.4748 30.4676 32.2101C30.5786 32.1219 30.6711 32.0336 30.7821 31.9631C30.9856 31.8043 31.1891 31.6455 31.3741 31.4867C31.3741 31.469 31.3741 31.469 31.3556 31.4514C35.0371 28.2223 37.3496 23.617 37.3496 18.5ZM27.9886 27.2695C22.9751 24.0581 14.7611 24.0581 9.71061 27.2695C8.89661 27.7812 8.23061 28.3811 7.67561 29.034C4.86361 26.3167 3.12461 22.5936 3.12461 18.5C3.12461 10.2245 10.1731 3.50184 18.8496 3.50184C27.5261 3.50184 34.5746 10.2245 34.5746 18.5C34.5746 22.5936 32.8356 26.3167 30.0236 29.034C29.4871 28.3811 28.8026 27.7812 27.9886 27.2695Z" fill="#049ED9"/>
<path d="M18.8496 9.55347C15.0201 9.55347 11.9121 12.5178 11.9121 16.1703C11.9121 19.7522 14.8536 22.6636 18.7571 22.7695H18.9236H19.0531H19.0901C22.8271 22.646 25.7686 19.7522 25.7871 16.1703C25.7871 12.5178 22.6791 9.55347 18.8496 9.55347Z" fill="#049ED9"/>
</svg>
