<svg width="42" height="39" viewBox="0 0 42 39" fill="none" xmlns="http://www.w3.org/2000/svg">
<path d="M40.3612 38.3192H7.2942C3.2678 38.3192 0 35.3249 0 31.6356V1.33672C0 0.605978 0.661341 0 1.45884 0C2.25634 0 2.91768 0.605978 2.91768 1.33672V31.6356C2.91768 33.8456 4.88225 35.6458 7.2942 35.6458H40.3612C41.1587 35.6458 41.8201 36.2517 41.8201 36.9825C41.8201 37.7132 41.1587 38.3192 40.3612 38.3192Z" fill="#049ED9"/>
<path d="M7.29382 29.4074C6.96315 29.4074 6.61303 29.3005 6.34071 29.0866C5.73773 28.6054 5.65992 27.7677 6.1851 27.1974L15.1132 17.6443C16.0858 16.6106 17.4862 15.9868 18.9645 15.9333C20.4428 15.8977 21.9016 16.3967 22.952 17.3591L24.7999 19.0523C25.2861 19.4979 25.9086 19.7117 26.6088 19.7117C27.2896 19.6939 27.912 19.4088 28.3594 18.9275L37.2875 9.37452C37.8127 8.82201 38.7269 8.75072 39.3493 9.23193C39.9523 9.71315 40.0301 10.5508 39.505 11.1212L30.5769 20.6742C29.6043 21.7079 28.2038 22.3317 26.7255 22.3852C25.2278 22.4208 23.7884 21.9218 22.738 20.9593L20.9096 19.2662C20.4233 18.8206 19.7814 18.5889 19.1007 18.6067C18.4199 18.6246 17.7974 18.9097 17.35 19.3909L8.42199 28.944C8.11077 29.247 7.7023 29.4074 7.29382 29.4074Z" fill="#049ED9"/>
</svg>
