<svg width="42" height="41" viewBox="0 0 42 41" fill="none" xmlns="http://www.w3.org/2000/svg">
<path d="M37.3701 37.0412C36.9794 37.0412 36.6082 36.8921 36.3347 36.6313L23.8712 24.7438C23.3047 24.2035 23.3047 23.3091 23.8712 22.7688L38.972 8.36596C39.3432 8.01194 39.9097 7.88151 40.4176 8.01194C40.9255 8.161 41.316 8.55228 41.4333 9.03672C41.8044 10.6205 42 12.3905 42 14.4401V25.6195C42 30.7807 40.8669 34.2649 38.4055 36.6313C38.132 36.8921 37.7217 36.948 37.3701 37.0412ZM26.9771 23.7563L37.2529 33.5569C38.4836 31.7496 39.0697 29.1783 39.0697 25.6195V14.4401C39.0697 13.6762 39.0499 12.9682 38.9913 12.2974L26.9771 23.7563Z" fill="#049ED9"/>
<path d="M9.80672 39.5566C9.68951 39.5566 9.59187 39.5379 9.47466 39.5193C3.00846 38.1032 0 33.6874 0 25.6195V14.4401C0 4.32271 4.5322 0 15.1399 0H26.8611C35.3199 0 39.9498 2.86941 41.4344 9.03673C41.5517 9.50254 41.3954 10.0056 41.0437 10.341L10.8421 39.1466C10.5686 39.4075 10.1974 39.5566 9.80672 39.5566ZM15.1399 2.79486C6.1341 2.79486 2.9303 5.85057 2.9303 14.4401V25.6195C2.9303 32.085 4.80571 35.327 9.35745 36.6126L38.3674 8.94355C37.039 4.6022 33.6203 2.81347 26.8416 2.81347H15.1399V2.79486Z" fill="#049ED9"/>
<path d="M26.8618 40.0594H15.1405C12.9916 40.0594 11.1553 39.8917 9.47529 39.5191C8.94783 39.4073 8.53755 39.0346 8.40081 38.5502C8.24452 38.0657 8.4008 37.544 8.77198 37.1714L23.8729 22.7686C24.4394 22.2282 25.3771 22.2282 25.9436 22.7686L38.4072 34.656C38.6807 34.9169 38.8369 35.2709 38.8369 35.6435C38.8369 36.0162 38.6807 36.3702 38.4072 36.631C35.9262 38.9787 32.2731 40.0594 26.8618 40.0594ZM12.894 37.19C13.5972 37.2459 14.3396 37.2645 15.1405 37.2645H26.8618C30.6126 37.2645 33.2889 36.7056 35.1838 35.5317L24.9082 25.7311L12.894 37.19Z" fill="#049ED9"/>
<path d="M15.3724 22.4706C14.1416 22.4706 12.9109 22.0421 11.9341 21.1664C8.82799 18.3529 7.57779 15.26 8.32013 12.2416C9.06248 9.14858 11.8951 7.06174 15.3724 7.06174C18.8497 7.06174 21.6823 9.14858 22.4247 12.2416C23.1475 15.2786 21.8972 18.3529 18.7911 21.1664C17.8339 22.0235 16.6031 22.4706 15.3724 22.4706ZM11.1723 12.8564C10.5471 15.3904 12.3444 17.6637 13.9658 19.1356C14.7668 19.8621 15.9975 19.8621 16.7789 19.1356C18.3809 17.6823 20.1781 15.409 19.5725 12.8564C19.0451 10.6392 16.9743 9.83796 15.3724 9.83796C13.7705 9.83796 11.7193 10.6392 11.1723 12.8564Z" fill="#049ED9"/>
<path d="M15.4338 15.3535C14.3593 15.3535 13.4802 14.5151 13.4802 13.4903C13.4802 12.4655 14.3398 11.627 15.4338 11.627H15.4533C16.5278 11.627 17.4068 12.4655 17.4068 13.4903C17.4068 14.5151 16.5082 15.3535 15.4338 15.3535Z" fill="#049ED9"/>
</svg>
