<svg width="38" height="37" viewBox="0 0 38 37" fill="none" xmlns="http://www.w3.org/2000/svg">
<path d="M37.35 18.5C37.35 8.77766 29.0435 0.855103 18.85 0.855103C8.65648 0.855103 0.349976 8.77766 0.349976 18.5C0.349976 23.617 2.66248 28.2223 6.32548 31.4514C6.32548 31.469 6.32548 31.469 6.30698 31.4867C6.49198 31.6631 6.71398 31.8043 6.89898 31.9631C7.00998 32.0513 7.10248 32.1395 7.21348 32.2101C7.54648 32.4748 7.91648 32.7218 8.26798 32.9688C8.39748 33.057 8.50848 33.1276 8.63798 33.2159C8.98948 33.4452 9.35948 33.657 9.74798 33.8511C9.87748 33.9216 10.0255 34.0099 10.155 34.0805C10.525 34.2745 10.9135 34.451 11.3205 34.6098C11.4685 34.6804 11.6165 34.751 11.7645 34.8039C12.1715 34.9627 12.5785 35.1039 12.9855 35.2274C13.1335 35.2803 13.2815 35.3332 13.4295 35.3685C13.8735 35.492 14.3175 35.5979 14.7615 35.7038C14.891 35.7391 15.0205 35.7744 15.1685 35.792C15.6865 35.8979 16.2045 35.9685 16.741 36.0214C16.815 36.0214 16.889 36.039 16.963 36.0567C17.592 36.1096 18.221 36.1449 18.85 36.1449C19.479 36.1449 20.108 36.1096 20.7185 36.0567C20.7925 36.0567 20.8665 36.039 20.9405 36.0214C21.477 35.9685 21.995 35.8979 22.513 35.792C22.6425 35.7744 22.772 35.7214 22.92 35.7038C23.364 35.5979 23.8265 35.5097 24.252 35.3685C24.4 35.3156 24.548 35.2627 24.696 35.2274C25.103 35.0862 25.5285 34.9627 25.917 34.8039C26.065 34.751 26.213 34.6804 26.361 34.6098C26.7495 34.451 27.138 34.2745 27.5265 34.0805C27.6745 34.0099 27.804 33.9216 27.9335 33.8511C28.3035 33.6393 28.6735 33.4452 29.0435 33.2159C29.173 33.1453 29.284 33.057 29.4135 32.9688C29.7835 32.7218 30.135 32.4748 30.468 32.2101C30.579 32.1219 30.6715 32.0336 30.7825 31.9631C30.986 31.8043 31.1895 31.6455 31.3745 31.4867C31.3745 31.469 31.3745 31.469 31.356 31.4514C35.0375 28.2223 37.35 23.617 37.35 18.5ZM27.989 27.2695C22.9755 24.0581 14.7615 24.0581 9.71098 27.2695C8.89698 27.7812 8.23098 28.3811 7.67598 29.034C4.86398 26.3167 3.12498 22.5936 3.12498 18.5C3.12498 10.2245 10.1735 3.50184 18.85 3.50184C27.5265 3.50184 34.575 10.2245 34.575 18.5C34.575 22.5936 32.836 26.3167 30.024 29.034C29.4875 28.3811 28.803 27.7812 27.989 27.2695Z" fill="#049ED9"/>
<path d="M18.85 9.55347C15.0205 9.55347 11.9125 12.5178 11.9125 16.1703C11.9125 19.7522 14.854 22.6636 18.7575 22.7695H18.924H19.0535H19.0905C22.8275 22.646 25.769 19.7522 25.7875 16.1703C25.7875 12.5178 22.6795 9.55347 18.85 9.55347Z" fill="#049ED9"/>
</svg>
