<svg width="38" height="37" viewBox="0 0 38 37" fill="none" xmlns="http://www.w3.org/2000/svg">
<path d="M37.3501 18.5C37.3501 8.77766 29.0436 0.855103 18.8501 0.855103C8.6566 0.855103 0.350098 8.77766 0.350098 18.5C0.350098 23.617 2.6626 28.2223 6.3256 31.4514C6.3256 31.469 6.3256 31.469 6.3071 31.4867C6.4921 31.6631 6.7141 31.8043 6.8991 31.9631C7.0101 32.0513 7.1026 32.1395 7.2136 32.2101C7.5466 32.4748 7.9166 32.7218 8.2681 32.9688C8.3976 33.057 8.5086 33.1276 8.6381 33.2159C8.9896 33.4452 9.3596 33.657 9.7481 33.8511C9.8776 33.9216 10.0256 34.0099 10.1551 34.0805C10.5251 34.2745 10.9136 34.451 11.3206 34.6098C11.4686 34.6804 11.6166 34.751 11.7646 34.8039C12.1716 34.9627 12.5786 35.1039 12.9856 35.2274C13.1336 35.2803 13.2816 35.3332 13.4296 35.3685C13.8736 35.492 14.3176 35.5979 14.7616 35.7038C14.8911 35.7391 15.0206 35.7744 15.1686 35.792C15.6866 35.8979 16.2046 35.9685 16.7411 36.0214C16.8151 36.0214 16.8891 36.039 16.9631 36.0567C17.5921 36.1096 18.2211 36.1449 18.8501 36.1449C19.4791 36.1449 20.1081 36.1096 20.7186 36.0567C20.7926 36.0567 20.8666 36.039 20.9406 36.0214C21.4771 35.9685 21.9951 35.8979 22.5131 35.792C22.6426 35.7744 22.7721 35.7214 22.9201 35.7038C23.3641 35.5979 23.8266 35.5097 24.2521 35.3685C24.4001 35.3156 24.5481 35.2627 24.6961 35.2274C25.1031 35.0862 25.5286 34.9627 25.9171 34.8039C26.0651 34.751 26.2131 34.6804 26.3611 34.6098C26.7496 34.451 27.1381 34.2745 27.5266 34.0805C27.6746 34.0099 27.8041 33.9216 27.9336 33.8511C28.3036 33.6393 28.6736 33.4452 29.0436 33.2159C29.1731 33.1453 29.2841 33.057 29.4136 32.9688C29.7836 32.7218 30.1351 32.4748 30.4681 32.2101C30.5791 32.1219 30.6716 32.0336 30.7826 31.9631C30.9861 31.8043 31.1896 31.6455 31.3746 31.4867C31.3746 31.469 31.3746 31.469 31.3561 31.4514C35.0376 28.2223 37.3501 23.617 37.3501 18.5ZM27.9891 27.2695C22.9756 24.0581 14.7616 24.0581 9.7111 27.2695C8.8971 27.7812 8.2311 28.3811 7.6761 29.034C4.8641 26.3167 3.1251 22.5936 3.1251 18.5C3.1251 10.2245 10.1736 3.50184 18.8501 3.50184C27.5266 3.50184 34.5751 10.2245 34.5751 18.5C34.5751 22.5936 32.8361 26.3167 30.0241 29.034C29.4876 28.3811 28.8031 27.7812 27.9891 27.2695Z" fill="#049ED9"/>
<path d="M18.8501 9.55347C15.0206 9.55347 11.9126 12.5178 11.9126 16.1703C11.9126 19.7522 14.8541 22.6636 18.7576 22.7695H18.9241H19.0536H19.0906C22.8276 22.646 25.7691 19.7522 25.7876 16.1703C25.7876 12.5178 22.6796 9.55347 18.8501 9.55347Z" fill="#049ED9"/>
</svg>
