<svg width="32" height="32" viewBox="0 0 32 32" fill="none" xmlns="http://www.w3.org/2000/svg">
<path d="M30.8584 31.1444H1.31738C0.711791 31.1444 0.209595 30.6654 0.209595 30.0878C0.209595 29.5102 0.711791 29.0312 1.31738 29.0312H30.8584C31.464 29.0312 31.9662 29.5102 31.9662 30.0878C31.9662 30.6654 31.464 31.1444 30.8584 31.1444Z" fill="white"/>
<path d="M19.4112 31.1444H12.7645C12.1589 31.1444 11.6567 30.6654 11.6567 30.0878V4.72979C11.6567 2.30669 13.0599 0.855652 15.4232 0.855652H16.7526C19.1158 0.855652 20.519 2.30669 20.519 4.72979V30.0878C20.519 30.6654 20.0168 31.1444 19.4112 31.1444ZM13.8723 29.0312H18.3035V4.72979C18.3035 3.1097 17.5059 2.96882 16.7526 2.96882H15.4232C14.6699 2.96882 13.8723 3.1097 13.8723 4.72979V29.0312Z" fill="white"/>
<path d="M8.70275 31.1444H2.79455C2.18896 31.1444 1.68677 30.6654 1.68677 30.0878V13.1825C1.68677 10.7594 2.98657 9.30832 5.15783 9.30832H6.33947C8.51073 9.30832 9.81054 10.7594 9.81054 13.1825V30.0878C9.81054 30.6654 9.30834 31.1444 8.70275 31.1444ZM3.90234 29.0312H7.59496V13.1825C7.59496 11.4215 6.78259 11.4215 6.33947 11.4215H5.15783C4.71472 11.4215 3.90234 11.4215 3.90234 13.1825V29.0312Z" fill="white"/>
<path d="M29.3813 31.1444H23.4731C22.8676 31.1444 22.3654 30.6654 22.3654 30.0878V20.2263C22.3654 17.8032 23.6652 16.3522 25.8364 16.3522H27.0181C29.1893 16.3522 30.4891 17.8032 30.4891 20.2263V30.0878C30.4891 30.6654 29.9869 31.1444 29.3813 31.1444ZM24.5809 29.0312H28.2736V20.2263C28.2736 18.4654 27.4612 18.4654 27.0181 18.4654H25.8364C25.3933 18.4654 24.5809 18.4654 24.5809 20.2263V29.0312Z" fill="white"/>
</svg>
