<svg width="48" height="49" viewBox="0 0 48 49" fill="none" xmlns="http://www.w3.org/2000/svg">
<path fill-rule="evenodd" clip-rule="evenodd" d="M39.6594 23.2214C34.5637 17.2714 29.1652 14.1714 24.0189 14.1714C18.8727 14.1714 13.4742 17.2714 8.3784 23.2214C7.87387 23.7714 7.87387 24.6214 8.3784 25.1714C13.4742 31.0714 18.8727 34.1714 24.0189 34.1714C29.1652 34.1714 34.5637 31.0714 39.6594 25.1214C40.1135 24.5714 40.1135 23.7714 39.6594 23.2214ZM24.0185 32.1714C19.6291 32.1714 14.7351 29.3214 10.1943 24.1714C14.7351 19.0214 19.6291 16.1714 24.0185 16.1714C28.408 16.1714 33.3019 19.0214 37.8427 24.1714C33.3019 29.3214 28.408 32.1714 24.0185 32.1714ZM24.0192 18.1714C20.6893 18.1714 17.9648 20.8714 17.9648 24.1714C17.9648 27.4714 20.6893 30.1714 24.0192 30.1714C27.3492 30.1714 30.0736 27.4714 30.0736 24.1714C30.0736 20.8714 27.3492 18.1714 24.0192 18.1714ZM24.0197 28.1714C21.7997 28.1714 19.9834 26.3714 19.9834 24.1714C19.9834 21.9714 21.7997 20.1714 24.0197 20.1714C26.2396 20.1714 28.0559 21.9714 28.0559 24.1714C28.0559 26.3714 26.2396 28.1714 24.0197 28.1714Z" fill="#032D23"/>
</svg>
