<svg width="278" height="277" viewBox="0 0 278 277" fill="none" xmlns="http://www.w3.org/2000/svg">
<path d="M145.582 3.61573C145.603 3.15325 145.716 2.69955 145.916 2.28154C146.115 1.86352 146.397 1.4897 146.744 1.18223C147.091 0.874751 147.497 0.639884 147.937 0.491545C148.377 0.343205 148.842 0.284414 149.306 0.318655C185.441 2.99616 219.099 19.6311 243.108 46.6792C267.118 73.7273 279.58 109.05 277.839 145.122C276.099 181.193 260.294 215.161 233.792 239.789C207.29 264.417 172.186 277.757 135.959 276.967C99.7328 276.177 65.2477 261.319 39.8518 235.56C14.4558 209.801 0.156785 175.176 0.00128165 139.063C-0.154221 102.95 13.8461 68.2046 39.0193 42.229C64.1925 16.2533 98.5483 1.10142 134.767 0.00162667C135.231 -0.0125763 135.694 0.0663476 136.127 0.233709C136.561 0.401071 136.956 0.653462 137.289 0.975913C137.623 1.29836 137.888 1.68431 138.069 2.11084C138.25 2.53737 138.343 2.9958 138.343 3.45894V72.8001C138.343 73.6798 138.007 74.5264 137.403 75.1677C136.798 75.8089 135.972 76.1965 135.091 76.2517C118.991 77.2589 103.903 84.4265 92.9803 96.2576C82.0572 108.089 76.1429 123.668 76.4726 139.742C76.8024 155.816 83.3507 171.142 94.7498 182.518C106.149 193.895 121.518 200.442 137.646 200.792C153.774 201.143 169.414 195.27 181.3 184.399C193.186 173.529 200.398 158.503 201.431 142.458C202.463 126.414 197.236 110.592 186.841 98.2977C176.446 86.0032 161.687 78.1869 145.646 76.4811C144.768 76.3878 143.959 75.9646 143.383 75.2976C142.807 74.6307 142.508 73.7701 142.547 72.8912L145.582 3.61573Z" fill="#1D70B7"/>
</svg>
