<svg width="127" height="251" viewBox="0 0 127 251" fill="none" xmlns="http://www.w3.org/2000/svg">
<path d="M0.321777 3.96077C0.321719 3.53611 0.407109 3.11576 0.572881 2.72466C0.738652 2.33356 0.981429 1.97969 1.28681 1.68402C1.59219 1.38836 1.95394 1.15694 2.35062 1.00348C2.7473 0.85002 3.17081 0.777653 3.59604 0.790676C34.0651 1.71991 63.1877 13.5365 85.6653 34.0905C108.143 54.6446 122.482 82.5703 126.074 112.787C129.666 143.004 122.272 173.504 105.237 198.738C88.2017 223.972 62.658 242.263 33.2529 250.284C32.8426 250.396 32.4141 250.424 31.9926 250.368C31.5712 250.311 31.1654 250.171 30.7993 249.955C30.4332 249.739 30.1143 249.452 29.8615 249.111C29.6086 248.769 29.427 248.381 29.3273 247.968L14.4206 186.153C14.2315 185.369 14.349 184.542 14.7492 183.841C15.1493 183.14 15.8021 182.618 16.5745 182.38C29.3818 178.442 40.3996 170.144 47.7093 158.931C55.019 147.719 58.1575 134.303 56.5784 121.019C54.9992 107.734 48.8025 95.4239 39.0672 86.2305C29.3318 77.0372 16.6746 71.5435 3.29953 70.7061C2.49305 70.6555 1.73618 70.3001 1.18297 69.7122C0.629765 69.1242 0.321805 68.3479 0.321777 67.5413V3.96077Z" fill="#049ED9"/>
</svg>
