<svg width="257" height="255" viewBox="0 0 257 255" fill="none" xmlns="http://www.w3.org/2000/svg">
<path d="M134.558 4.10736C134.576 3.68295 134.681 3.26661 134.864 2.88301C135.047 2.49941 135.305 2.15636 135.624 1.8742C135.943 1.59204 136.315 1.37651 136.719 1.24038C137.123 1.10426 137.55 1.05031 137.975 1.08173C171.135 3.5388 202.022 18.8043 224.055 43.6256C246.087 68.4468 257.524 100.862 255.927 133.963C254.33 167.065 239.826 198.237 215.506 220.837C191.186 243.437 158.971 255.679 125.727 254.954C92.483 254.229 60.837 240.595 37.5318 216.956C14.2267 193.318 1.10481 161.544 0.962114 128.404C0.819413 95.2641 13.6671 63.3788 36.7679 39.5417C59.8686 15.7045 91.3961 1.80005 124.633 0.790799C125.059 0.777766 125.484 0.850192 125.881 1.00378C126.279 1.15736 126.641 1.38897 126.948 1.68488C127.254 1.98078 127.497 2.33495 127.663 2.72637C127.829 3.11778 127.915 3.53847 127.915 3.96349V67.596C127.915 68.4033 127.606 69.1802 127.052 69.7686C126.497 70.3571 125.738 70.7128 124.93 70.7634C110.155 71.6877 96.3102 78.2653 86.2864 89.1223C76.2626 99.9794 70.8352 114.276 71.1378 129.027C71.4404 143.778 77.4496 157.842 87.9103 168.281C98.371 178.721 112.474 184.729 127.275 185.051C142.075 185.373 156.427 179.983 167.335 170.008C178.242 160.032 184.861 146.243 185.809 131.519C186.756 116.796 181.959 102.277 172.42 90.9944C162.881 79.7121 149.336 72.5393 134.616 70.9739C133.811 70.8883 133.068 70.4999 132.54 69.8879C132.011 69.2759 131.737 68.4862 131.772 67.6796L134.558 4.10736Z" fill="#1D70B7"/>
</svg>
