<svg width="255" height="255" viewBox="0 0 255 255" fill="none" xmlns="http://www.w3.org/2000/svg">
<path d="M213.92 39.4185C214.216 39.1138 214.57 38.8717 214.962 38.7064C215.353 38.5412 215.773 38.4562 216.198 38.4565C216.623 38.4568 217.043 38.5423 217.434 38.7081C217.825 38.8739 218.179 39.1166 218.474 39.4216C238.753 60.3675 251.217 87.6492 253.777 116.694C256.337 145.739 248.838 174.781 232.536 198.952C216.233 223.124 192.12 240.956 164.236 249.459C136.352 257.962 106.394 256.619 79.3825 245.656C52.3709 234.693 29.948 214.776 15.8722 189.243C1.79642 163.71 -3.0766 134.113 2.06994 105.414C7.21648 76.7147 22.0698 50.6571 44.1401 31.6091C66.2104 12.5611 94.1562 1.68036 123.293 0.790799C123.718 0.777766 124.141 0.850192 124.537 1.00378C124.933 1.15736 125.295 1.38897 125.6 1.68488C125.905 1.98078 126.147 2.33495 126.313 2.72637C126.478 3.11778 126.564 3.53848 126.564 3.96349V67.596C126.564 68.4033 126.256 69.1803 125.704 69.7687C125.151 70.3571 124.395 70.7129 123.589 70.7634C110.655 71.5752 98.3794 76.7568 88.7742 85.4595C79.169 94.1621 72.8035 105.87 70.7207 118.664C68.6379 131.459 70.9612 144.581 77.31 155.882C83.6589 167.183 93.6568 175.993 105.666 180.867C117.675 185.741 130.983 186.391 143.409 182.711C155.836 179.03 166.645 171.237 174.064 160.609C181.484 149.981 185.075 137.147 184.248 124.21C183.422 111.274 178.227 99.0014 169.516 89.4039C168.973 88.8061 168.679 88.024 168.693 87.2168C168.707 86.4096 169.027 85.638 169.59 85.0591L213.92 39.4185Z" fill="#1D70B7"/>
</svg>
