<svg width="138" height="272" viewBox="0 0 138 272" fill="none" xmlns="http://www.w3.org/2000/svg">
<path d="M3.24908e-08 3.45612C-6.34794e-05 2.99336 0.0929868 2.5353 0.27363 2.10911C0.454274 1.68293 0.718831 1.2973 1.05161 0.975116C1.38438 0.652928 1.77859 0.400743 2.21086 0.233518C2.64312 0.0662934 3.10463 -0.012566 3.568 0.00162535C36.7706 1.01422 68.5058 13.8909 93 36.2889C117.494 58.6869 133.12 89.1179 137.034 122.046C140.948 154.973 132.89 188.209 114.327 215.707C95.7639 243.205 67.9286 263.137 35.8854 271.878C35.4384 272 34.9714 272.031 34.5122 271.969C34.0529 271.908 33.6107 271.755 33.2118 271.519C32.8128 271.284 32.4653 270.971 32.1898 270.599C31.9143 270.227 31.7163 269.804 31.6077 269.354L15.3636 201.993C15.1576 201.139 15.2857 200.238 15.7217 199.474C16.1578 198.71 16.8691 198.141 17.7108 197.882C31.6671 193.59 43.6733 184.548 51.6388 172.33C59.6042 160.112 63.0243 145.492 61.3035 131.016C59.5827 116.54 52.8301 103.125 42.2214 93.1066C31.6126 83.0885 17.8199 77.1019 3.2449 76.1894C2.36607 76.1343 1.54129 75.747 0.938455 75.1063C0.335618 74.4655 3.04232e-05 73.6196 3.24908e-08 72.7406V3.45612Z" fill="#049ED9"/>
</svg>
