<svg width="157" height="255" viewBox="0 0 157 255" fill="none" xmlns="http://www.w3.org/2000/svg">
<path d="M156.764 248.455C156.863 248.868 156.879 249.297 156.809 249.716C156.74 250.136 156.586 250.537 156.359 250.896C156.131 251.255 155.833 251.565 155.483 251.807C155.133 252.049 154.737 252.218 154.32 252.305C137.017 255.906 119.152 255.877 101.861 252.221C84.5691 248.564 68.2293 241.359 53.8794 231.064C39.5295 220.769 27.4834 207.61 18.5065 192.421C9.52964 177.232 3.81833 160.347 1.73553 142.838C-0.34728 125.329 1.24395 107.579 6.40811 90.7166C11.5723 73.8541 20.1964 58.2476 31.7325 44.8887C43.2687 31.5298 57.4645 20.7107 73.4178 13.119C89.3712 5.52728 106.733 1.3289 124.401 0.790677C124.827 0.777644 125.251 0.85007 125.648 1.00365C126.045 1.15724 126.408 1.38885 126.714 1.68475C127.019 1.98066 127.263 2.33483 127.429 2.72625C127.595 3.11766 127.68 3.53836 127.68 3.96337V67.5959C127.68 68.4032 127.372 69.1802 126.818 69.7686C126.264 70.357 125.506 70.7128 124.698 70.7633C116.915 71.2511 109.313 73.3171 102.358 76.8352C95.4021 80.3532 89.239 85.2494 84.2451 91.2242C79.2512 97.1991 75.5314 104.127 73.3131 111.585C71.0948 119.043 70.4247 126.873 71.3436 134.598C72.2625 142.323 74.7512 149.78 78.6575 156.513C82.5638 163.246 87.8057 169.113 94.0627 173.756C100.32 178.4 107.46 181.721 115.048 183.518C122.636 185.314 130.511 185.548 138.192 184.206C138.989 184.067 139.81 184.236 140.486 184.678C141.163 185.121 141.645 185.804 141.834 186.589L156.764 248.455Z" fill="#1D70B7"/>
</svg>
