<svg width="94" height="92" viewBox="0 0 94 92" fill="none" xmlns="http://www.w3.org/2000/svg">
<path d="M3.24881e-08 3.46067C-6.34742e-05 2.9973 0.0929792 2.53863 0.273608 2.11189C0.454237 1.68514 0.718772 1.29901 1.05152 0.976399C1.38427 0.653787 1.77845 0.401271 2.21068 0.233826C2.64291 0.0663807 3.10438 -0.0125825 3.56771 0.00162749C36.7118 1.0131 68.3958 13.8645 92.8736 36.2252C93.2157 36.5378 93.4916 36.9158 93.6848 37.3369C93.878 37.758 93.9847 38.2136 93.9985 38.6767C94.0123 39.1398 93.9329 39.6009 93.765 40.0327C93.5971 40.4646 93.3442 40.8583 93.0213 41.1906L44.6599 90.9505C44.0465 91.5818 43.2154 91.9558 42.3359 91.9963C41.4564 92.0368 40.5945 91.7408 39.9256 91.1685C29.6384 82.3604 16.7631 77.1378 3.24463 76.2896C2.36587 76.2345 1.54117 75.8466 0.938379 75.2051C0.335591 74.5636 3.04208e-05 73.7165 3.24881e-08 72.8364V3.46067Z" fill="#049ED9"/>
</svg>
