<svg width="87" height="86" viewBox="0 0 87 86" fill="none" xmlns="http://www.w3.org/2000/svg">
<path d="M0.629883 3.96507C0.629825 3.53984 0.715207 3.11894 0.880966 2.72733C1.04672 2.33572 1.28948 1.98137 1.59483 1.68532C1.90019 1.38927 2.26192 1.15754 2.65856 1.00388C3.05521 0.850222 3.47869 0.77776 3.90388 0.7908C34.3193 1.719 63.3949 13.5124 85.8575 34.0322C86.1714 34.319 86.4246 34.6659 86.6019 35.0523C86.7792 35.4388 86.8771 35.8569 86.8897 36.2818C86.9024 36.7068 86.8295 37.13 86.6755 37.5262C86.5214 37.9225 86.2894 38.2839 85.993 38.5888L41.613 84.2521C41.0501 84.8315 40.2875 85.1747 39.4804 85.2118C38.6733 85.249 37.8823 84.9773 37.2685 84.4521C27.8282 76.3692 16.013 71.5766 3.60739 70.7982C2.80098 70.7476 2.04417 70.3917 1.49101 69.803C0.937845 69.2143 0.629911 68.4369 0.629883 67.6293V3.96507Z" fill="#049ED9"/>
</svg>
