<svg width="170" height="277" viewBox="0 0 170 277" fill="none" xmlns="http://www.w3.org/2000/svg">
<path d="M169.904 269.885C170.012 270.335 170.029 270.802 169.953 271.259C169.878 271.716 169.711 272.153 169.462 272.544C169.214 272.936 168.889 273.273 168.508 273.537C168.126 273.801 167.695 273.985 167.241 274.08C148.385 278.004 128.918 277.973 110.075 273.988C91.2323 270.003 73.4266 262.152 57.7893 250.934C42.1521 239.715 29.0253 225.375 19.2431 208.824C9.46087 192.272 3.23719 173.872 0.967525 154.792C-1.30214 135.713 0.43185 116.37 6.0593 97.9951C11.6868 79.6198 21.0846 62.6131 33.6557 48.0558C46.2267 33.4984 61.6961 21.7088 79.0807 13.436C96.4653 5.16316 115.385 0.588135 134.638 0.00162668C135.102 -0.0125763 135.564 0.0663477 135.997 0.23371C136.43 0.401072 136.824 0.653463 137.158 0.975914C137.491 1.29837 137.756 1.68431 137.937 2.11084C138.118 2.53737 138.211 2.99581 138.211 3.45895V72.8002C138.211 73.6799 137.875 74.5265 137.271 75.1678C136.667 75.809 135.841 76.1966 134.961 76.2517C126.48 76.7832 118.196 79.0346 110.617 82.8683C103.037 86.702 96.3212 92.0373 90.8793 98.5483C85.4374 105.059 81.3839 112.609 78.9666 120.736C76.5493 128.862 75.819 137.396 76.8203 145.814C77.8217 154.232 80.5336 162.357 84.7904 169.694C89.0472 177.031 94.7593 183.425 101.578 188.485C108.396 193.544 116.177 197.164 124.445 199.122C132.714 201.079 141.296 201.335 149.666 199.871C150.535 199.72 151.429 199.904 152.166 200.386C152.903 200.869 153.429 201.614 153.635 202.469L169.904 269.885Z" fill="#1D70B7"/>
</svg>
