<svg width="4" height="76" viewBox="0 0 4 76" fill="none" xmlns="http://www.w3.org/2000/svg">
<path d="M0.000147388 2.30496C-4.88661e-05 1.99809 0.0530028 1.69427 0.156186 1.41134C0.25937 1.12841 0.410605 0.872083 0.601008 0.657408C0.791411 0.442734 1.01714 0.274044 1.26495 0.161245C1.51275 0.0484455 1.77762 -0.00618669 2.04402 0.000556118C2.31041 0.00729892 2.57295 0.0752844 2.81621 0.200513C3.05947 0.325742 3.27854 0.505685 3.46057 0.729786C3.6426 0.953888 3.78391 1.21763 3.87621 1.50551C3.9685 1.79338 4.00991 2.0996 3.998 2.40616L1.23425 75.3047C1.23068 75.4932 1.16224 75.6723 1.04399 75.8027C0.925742 75.933 0.767372 76.0039 0.60372 75.9998C0.440068 75.9957 0.284538 75.9169 0.171346 75.7807C0.0581546 75.6445 -0.00342754 75.4621 0.000147388 75.2737V2.30496Z" fill="#049ED9"/>
</svg>
