<svg width="5" height="71" viewBox="0 0 5 71" fill="none" xmlns="http://www.w3.org/2000/svg">
<path d="M0.435682 2.90451C0.435502 2.6229 0.484186 2.34409 0.578875 2.08446C0.673564 1.82482 0.812348 1.58959 0.987076 1.39259C1.1618 1.19559 1.36895 1.04079 1.59635 0.937276C1.82376 0.833764 2.06682 0.783629 2.31129 0.789817C2.55575 0.796005 2.79667 0.858393 3.0199 0.973312C3.24314 1.08823 3.44418 1.25336 3.61122 1.45901C3.77827 1.66466 3.90794 1.90669 3.99264 2.17087C4.07733 2.43504 4.11533 2.71605 4.10441 2.99738L1.56819 69.8944C1.5649 70.0674 1.5021 70.2317 1.39359 70.3514C1.28508 70.471 1.13974 70.5361 0.989564 70.5323C0.839385 70.5285 0.69666 70.4562 0.592787 70.3312C0.488914 70.2062 0.432402 70.0389 0.435682 69.8659V2.90451Z" fill="#049ED9"/>
</svg>
