<svg width="277" height="277" viewBox="0 0 277 277" fill="none" xmlns="http://www.w3.org/2000/svg">
<path d="M233.032 42.0947C233.354 41.7627 233.74 41.4988 234.167 41.3188C234.593 41.1387 235.051 41.0461 235.514 41.0464C235.977 41.0467 236.435 41.14 236.861 41.3206C237.287 41.5013 237.673 41.7657 237.995 42.0982C260.093 64.9231 273.675 94.6524 276.465 126.303C279.254 157.953 271.082 189.601 253.317 215.941C235.553 242.281 209.275 261.712 178.89 270.978C148.505 280.244 115.859 278.781 86.4243 266.835C56.9894 254.888 32.5549 233.184 17.2163 205.36C1.87777 177.537 -3.43243 145.285 2.17583 114.011C7.78408 82.7369 23.9699 54.3416 48.0202 33.5847C72.0705 12.8278 102.523 0.970995 134.275 0.00162668C134.737 -0.0125763 135.198 0.0663477 135.63 0.23371C136.062 0.401071 136.456 0.653462 136.788 0.975914C137.12 1.29837 137.385 1.68431 137.565 2.11084C137.745 2.53737 137.838 2.99581 137.838 3.45895V72.8002C137.838 73.6799 137.503 74.5265 136.901 75.1677C136.299 75.809 135.475 76.1966 134.597 76.2517C120.502 77.1363 107.126 82.7828 96.6586 92.2662C86.1916 101.75 79.2551 114.507 76.9854 128.45C74.7158 142.392 77.2475 156.692 84.1659 169.007C91.0843 181.322 101.979 190.921 115.065 196.233C128.152 201.544 142.654 202.253 156.195 198.242C169.737 194.231 181.515 185.74 189.6 174.158C197.686 162.576 201.598 148.591 200.698 134.493C199.797 120.396 194.137 107.023 184.644 96.5645C184.053 95.9131 183.732 95.0608 183.747 94.1812C183.762 93.3016 184.111 92.4607 184.724 91.8298L233.032 42.0947Z" fill="#1D70B7"/>
</svg>
