<svg width="26" height="18" viewBox="0 0 26 18" fill="none" xmlns="http://www.w3.org/2000/svg">
<path d="M6.33333 6.33333H9M15.6667 17H2.33333C1.97971 17 1.64057 16.8595 1.39052 16.6095C1.14048 16.3594 1 16.0203 1 15.6667V2.33333C1 1.97971 1.14048 1.64057 1.39052 1.39052C1.64057 1.14048 1.97971 1 2.33333 1H15.6667C16.0203 1 16.3594 1.14048 16.6095 1.39052C16.8595 1.64057 17 1.97971 17 2.33333V15.6667C17 16.0203 16.8595 16.3594 16.6095 16.6095C16.3594 16.8595 16.0203 17 15.6667 17ZM17 13L23.16 15.56C23.362 15.643 23.5813 15.6751 23.7986 15.6535C24.0159 15.6319 24.2246 15.5572 24.4063 15.4361C24.588 15.315 24.7372 15.151 24.8407 14.9588C24.9442 14.7665 24.9989 14.5517 25 14.3333V3.66667C24.9989 3.44829 24.9442 3.23352 24.8407 3.04124C24.7372 2.84896 24.588 2.68504 24.4063 2.56391C24.2246 2.44277 24.0159 2.36812 23.7986 2.34652C23.5813 2.32491 23.362 2.35701 23.16 2.44L17 5V13Z" stroke="black" stroke-width="2" stroke-linecap="round" stroke-linejoin="round"/>
</svg>
