<svg width="31" height="28" viewBox="0 0 31 28" fill="none" xmlns="http://www.w3.org/2000/svg">
<path d="M8 26L3.5 26C3.10218 26 2.72065 25.842 2.43934 25.5607C2.15804 25.2794 2 24.8978 2 24.5L2 3.5C2 3.10218 2.15803 2.72064 2.43934 2.43934C2.72064 2.15803 3.10218 2 3.5 2L8 2M17.66 4.475L20 6.425C20.1497 6.55303 20.2727 6.7093 20.3621 6.88488C20.4514 7.06047 20.5052 7.25193 20.5206 7.44833C20.5359 7.64472 20.5124 7.84222 20.4514 8.02953C20.3904 8.21684 20.293 8.3903 20.165 8.54L17.99 11L29 11L29 17L17.99 17L20.105 19.46C20.3484 19.7504 20.4729 20.1222 20.4534 20.5006C20.4339 20.8791 20.2719 21.2361 20 21.5L17.72 23.45C17.5732 23.5992 17.3969 23.7159 17.2023 23.7929C17.0077 23.8698 16.7991 23.9052 16.5901 23.8967C16.381 23.8882 16.176 23.8361 15.9883 23.7437C15.8005 23.6512 15.6342 23.5205 15.5 23.36L8.315 14.975C8.08261 14.7033 7.9549 14.3575 7.9549 14C7.9549 13.6425 8.08261 13.2967 8.315 13.025L15.5 4.64C15.6285 4.48361 15.7873 4.35484 15.9668 4.26144C16.1464 4.16804 16.343 4.11194 16.5448 4.09653C16.7466 4.08111 16.9494 4.1067 17.1411 4.17174C17.3327 4.23678 17.5093 4.33994 17.66 4.475Z" stroke="white" stroke-width="3" stroke-linecap="round" stroke-linejoin="round"/>
</svg>
