<svg width="37" height="32" viewBox="0 0 37 32" fill="none" xmlns="http://www.w3.org/2000/svg">
<path fill-rule="evenodd" clip-rule="evenodd" d="M2.5 10.0294C2.5 7.28237 3.27858 5.5259 4.44615 4.44173C5.63049 3.34198 7.41221 2.75 9.77941 2.75H26.8382C29.2054 2.75 30.9872 3.34198 32.1715 4.44173C33.3391 5.5259 34.1176 7.28237 34.1176 10.0294V21.9706C34.1176 24.7176 33.3391 26.4741 32.1715 27.5583C30.9872 28.658 29.2054 29.25 26.8382 29.25H9.77941C7.41221 29.25 5.63049 28.658 4.44615 27.5583C3.27858 26.4741 2.5 24.7176 2.5 21.9706V10.0294ZM9.77941 0.25C7.02897 0.25 4.54598 0.937429 2.74502 2.60974C0.9273 4.29763 0 6.80587 0 10.0294V21.9706C0 25.1941 0.9273 27.7024 2.74502 29.3903C4.54598 31.0626 7.02897 31.75 9.77941 31.75H26.8382C29.5887 31.75 32.0717 31.0626 33.8726 29.3903C35.6903 27.7024 36.6176 25.1941 36.6176 21.9706V10.0294C36.6176 6.80587 35.6903 4.29763 33.8726 2.60974C32.0717 0.937429 29.5887 0.25 26.8382 0.25H9.77941ZM27.6182 11.859C28.1576 11.4282 28.2457 10.6416 27.8148 10.1022C27.384 9.5628 26.5974 9.47479 26.058 9.90563L20.7202 14.1691L20.7192 14.1698C19.4182 15.2048 17.1829 15.2049 15.8816 14.1702L15.8802 14.1691L10.5609 9.90685C10.0222 9.47517 9.2355 9.56195 8.80382 10.1007C8.37214 10.6394 8.45893 11.4261 8.99767 11.8578L14.32 16.1225L14.3231 16.125C16.5358 17.8865 20.0645 17.8865 22.2773 16.125L22.2788 16.1237L27.6182 11.859Z" fill="white"/>
</svg>
