<svg width="13" height="15" viewBox="0 0 13 15" fill="none" xmlns="http://www.w3.org/2000/svg">
<path d="M11.3673 7.7475L10.3804 6.8325C10.1458 6.645 10.0083 6.3675 10.0002 6.06C9.98404 5.7225 10.1297 5.385 10.3966 5.1375L11.3673 4.2375C12.2086 3.4575 12.5241 2.7075 12.2572 2.115C11.9983 1.53 11.1974 1.2075 10.0164 1.2075H1.56301V0.5625C1.56301 0.255 1.28797 0 0.956311 0C0.624648 0 0.349609 0.255 0.349609 0.5625V14.4375C0.349609 14.745 0.624648 15 0.956311 15C1.28797 15 1.56301 14.745 1.56301 14.4375V10.7775H10.0164C11.1813 10.7775 11.9659 10.4475 12.2329 9.855C12.4998 9.2625 12.1924 8.52 11.3673 7.7475Z" fill="white"/>
</svg>
