<svg width="31" height="36" viewBox="0 0 31 36" fill="none" xmlns="http://www.w3.org/2000/svg">
<path d="M30.3233 11.6095C28.5039 3.60414 21.5209 0 15.3869 0C15.3869 0 15.3869 0 15.3696 0C9.25291 0 2.25255 3.58682 0.433153 11.5922C-1.59418 20.5332 3.88135 28.1054 8.83705 32.8705C10.6738 34.6379 13.0304 35.5216 15.3869 35.5216C17.7435 35.5216 20.1001 34.6379 21.9195 32.8705C26.8751 28.1054 32.3507 20.5506 30.3233 11.6095ZM15.3869 20.2906C12.3719 20.2906 9.92869 17.8474 9.92869 14.8324C9.92869 11.8174 12.3719 9.37424 15.3869 9.37424C18.4019 9.37424 20.8451 11.8174 20.8451 14.8324C20.8451 17.8474 18.4019 20.2906 15.3869 20.2906Z" fill="white"/>
</svg>
