<svg width="48" height="48" viewBox="0 0 48 48" fill="none" xmlns="http://www.w3.org/2000/svg">
<path d="M23.9713 0C27.2975 0 30.4134 0.630824 33.319 1.89247C36.2246 3.15412 38.767 4.86499 40.9462 7.02509C43.1254 9.18519 44.8459 11.718 46.1075 14.6237C47.3692 17.5293 48 20.6452 48 23.9713C48 27.2975 47.3692 30.4134 46.1075 33.319C44.8459 36.2246 43.1254 38.767 40.9462 40.9462C38.767 43.1254 36.2246 44.8459 33.319 46.1075C30.4134 47.3692 27.2975 48 23.9713 48C20.6452 48 17.5293 47.3692 14.6237 46.1075C11.718 44.8459 9.18519 43.1254 7.02509 40.9462C4.86499 38.767 3.15412 36.2246 1.89247 33.319C0.630824 30.4134 0 27.2975 0 23.9713C0 20.6452 0.630824 17.5293 1.89247 14.6237C3.15412 11.718 4.86499 9.18519 7.02509 7.02509C9.18519 4.86499 11.718 3.15412 14.6237 1.89247C17.5293 0.630824 20.6452 0 23.9713 0ZM35.8996 18.81C37.0084 17.9689 37.9833 16.9558 38.8244 15.7706C38.2891 16 37.7443 16.1912 37.19 16.3441C36.6356 16.497 36.0526 16.6117 35.4409 16.6882C36.0526 16.3059 36.5878 15.8375 37.0466 15.2832C37.5054 14.7288 37.8303 14.1266 38.0215 13.4767C37.448 13.7826 36.8554 14.0597 36.2437 14.3082C35.632 14.5568 35.0012 14.7384 34.3513 14.853C33.816 14.3178 33.1852 13.8781 32.4588 13.5341C31.7324 13.19 30.9295 13.0179 30.0502 13.0179C29.2473 13.0179 28.4922 13.1708 27.7849 13.4767C27.0777 13.7826 26.4659 14.2031 25.9498 14.7384C25.4337 15.2736 25.0227 15.8949 24.7168 16.6022C24.411 17.3094 24.2581 18.0645 24.2581 18.8674C24.2581 19.0968 24.2676 19.3262 24.2867 19.5556C24.3059 19.7849 24.3345 19.9952 24.3728 20.1864C21.9642 20.0717 19.7276 19.4791 17.6631 18.4086C15.5986 17.3381 13.8399 15.9044 12.3871 14.1075C11.8519 14.9869 11.5842 15.9618 11.5842 17.0323C11.5842 18.0263 11.8232 18.9534 12.3011 19.8136C12.779 20.6738 13.4002 21.3716 14.1649 21.9068C13.1708 21.8303 12.2915 21.5818 11.5269 21.1613V21.2186C11.5269 22.6714 11.9761 23.9235 12.8746 24.9749C13.773 26.0263 14.8913 26.6858 16.2294 26.9534C15.9618 27.0299 15.7037 27.0872 15.4552 27.1254C15.2067 27.1637 14.9486 27.1828 14.681 27.1828C14.4898 27.1828 14.3082 27.1732 14.1362 27.1541C13.9642 27.135 13.7826 27.1063 13.5914 27.0681C13.9737 28.2151 14.6523 29.1708 15.6272 29.9355C16.6022 30.7001 17.7395 31.0824 19.0394 31.0824C18.0454 31.8853 16.9271 32.5066 15.6846 32.9462C14.4421 33.3859 13.1517 33.6057 11.8136 33.6057C11.546 33.6057 11.2975 33.5962 11.0681 33.5771C10.8387 33.5579 10.6093 33.5293 10.3799 33.491C11.6798 34.3321 13.0848 34.9821 14.595 35.4409C16.1051 35.8996 17.6822 36.129 19.3262 36.129C22.0024 36.129 24.3728 35.6225 26.4373 34.6093C28.5018 33.5962 30.2318 32.2963 31.6272 30.7097C33.0227 29.1231 34.0836 27.3453 34.81 25.3763C35.5364 23.4074 35.8996 21.4671 35.8996 19.5556V18.81Z" fill="white"/>
</svg>
