<svg width="16" height="15" viewBox="0 0 16 15" fill="none" xmlns="http://www.w3.org/2000/svg">
<path d="M13.8739 3.61372L9.55826 0.590874C8.38193 -0.234222 6.57624 -0.189217 5.44489 0.688385L1.69114 3.62122C0.941885 4.20629 0.349976 5.40643 0.349976 6.3515V11.5271C0.349976 13.4398 1.90093 15 3.81152 15H11.8884C13.799 15 15.35 13.4473 15.35 11.5346V6.44901C15.35 5.43643 14.6981 4.19129 13.8739 3.61372ZM8.4119 11.9997C8.4119 12.3072 8.15716 12.5622 7.84997 12.5622C7.54277 12.5622 7.28803 12.3072 7.28803 11.9997V9.74939C7.28803 9.44186 7.54277 9.18683 7.84997 9.18683C8.15716 9.18683 8.4119 9.44186 8.4119 9.74939V11.9997Z" fill="white"/>
</svg>
