<svg width="16" height="15" viewBox="0 0 16 15" fill="none" xmlns="http://www.w3.org/2000/svg">
<path d="M13.8741 3.61372L9.55838 0.590874C8.38206 -0.234222 6.57636 -0.189217 5.44501 0.688385L1.69126 3.62122C0.942007 4.20629 0.350098 5.40643 0.350098 6.3515V11.5271C0.350098 13.4398 1.90105 15 3.81164 15H11.8886C13.7991 15 15.3501 13.4473 15.3501 11.5346V6.44901C15.3501 5.43643 14.6982 4.19129 13.8741 3.61372ZM8.41203 11.9997C8.41203 12.3072 8.15728 12.5622 7.85009 12.5622C7.54289 12.5622 7.28815 12.3072 7.28815 11.9997V9.74939C7.28815 9.44186 7.54289 9.18683 7.85009 9.18683C8.15728 9.18683 8.41203 9.44186 8.41203 9.74939V11.9997Z" fill="white"/>
</svg>
