<svg width="48" height="48" viewBox="0 0 48 48" fill="none" xmlns="http://www.w3.org/2000/svg">
<path d="M23.9713 0C27.2975 0 30.4134 0.630824 33.319 1.89247C36.2246 3.15412 38.767 4.86499 40.9462 7.02509C43.1254 9.18519 44.8459 11.718 46.1075 14.6237C47.3692 17.5293 48 20.6452 48 23.9713C48 27.2975 47.3692 30.4134 46.1075 33.319C44.8459 36.2246 43.1254 38.767 40.9462 40.9462C38.767 43.1254 36.2246 44.8459 33.319 46.1075C30.4134 47.3692 27.2975 48 23.9713 48C20.6452 48 17.5293 47.3692 14.6237 46.1075C11.718 44.8459 9.18519 43.1254 7.02509 40.9462C4.86499 38.767 3.15412 36.2246 1.89247 33.319C0.630824 30.4134 0 27.2975 0 23.9713C0 20.6452 0.630824 17.5293 1.89247 14.6237C3.15412 11.718 4.86499 9.18519 7.02509 7.02509C9.18519 4.86499 11.718 3.15412 14.6237 1.89247C17.5293 0.630824 20.6452 0 23.9713 0ZM16.5161 18.0072H10.4946V37.5054H16.5161V18.0072ZM13.4767 16.4588C14.3178 16.4588 15.0346 16.172 15.6272 15.5986C16.2198 15.0251 16.5161 14.3178 16.5161 13.4767C16.5161 12.6356 16.2198 11.9283 15.6272 11.3548C15.0346 10.7814 14.3178 10.4946 13.4767 10.4946C12.6356 10.4946 11.9283 10.7814 11.3548 11.3548C10.7814 11.9283 10.4946 12.6356 10.4946 13.4767C10.4946 14.3178 10.7814 15.0251 11.3548 15.5986C11.9283 16.172 12.6356 16.4588 13.4767 16.4588ZM37.5054 26.2079C37.5054 24.8315 37.1231 23.4839 36.3584 22.1649C35.5938 20.8459 34.5998 19.8423 33.3763 19.1541C32.2676 18.5424 30.9773 18.2174 29.5054 18.1792C28.0335 18.141 26.6858 18.3895 25.4624 18.9247V18.0072H19.4982V37.5054H25.4624V25.5771L27.9857 24.3728C28.2915 24.2198 28.7025 24.1434 29.2186 24.1434C29.7348 24.1434 30.1458 24.2389 30.4516 24.4301C30.681 24.5448 30.9104 24.7933 31.1398 25.1756C31.3692 25.5579 31.4839 25.902 31.4839 26.2079V37.5054H37.5054V26.2079Z" fill="white"/>
</svg>
