<svg width="66" height="67" viewBox="0 0 66 67" fill="none" xmlns="http://www.w3.org/2000/svg">
<path d="M46.8503 0H19.1826C7.16457 0 0 7.16457 0 19.1826V46.8173C0 58.8683 7.16457 66.0329 19.1826 66.0329H46.8173C58.8353 66.0329 65.9999 58.8683 65.9999 46.8503V19.1826C66.0329 7.16457 58.8683 0 46.8503 0ZM48.7983 25.4227L30.078 44.143C29.6158 44.6052 28.9884 44.8694 28.3281 44.8694C27.6678 44.8694 27.0405 44.6052 26.5782 44.143L17.2346 34.7993C16.2771 33.8419 16.2771 32.2571 17.2346 31.2996C18.1921 30.3421 19.7769 30.3421 20.7343 31.2996L28.3281 38.8934L45.2986 21.9229C46.2561 20.9654 47.8408 20.9654 48.7983 21.9229C49.7558 22.8804 49.7558 24.4322 48.7983 25.4227Z" fill="#010101"/>
</svg>
