<svg width="36" height="34" viewBox="0 0 36 34" fill="none" xmlns="http://www.w3.org/2000/svg">
<path d="M26.5793 33.9739C24.7547 33.9739 22.8331 33.5473 20.847 32.7256C18.9093 31.9197 16.9554 30.8135 15.05 29.4704C13.1608 28.1114 11.3361 26.5945 9.60833 24.9353C7.8967 23.2445 6.34654 21.4589 4.974 19.6259C3.58532 17.7296 2.47114 15.8334 1.67991 14.0004C0.840245 12.041 0.42041 10.1448 0.42041 8.35916C0.42041 7.12662 0.646475 5.95728 1.08246 4.86696C1.53459 3.74503 2.26122 2.70211 3.24622 1.80141C4.48958 0.600469 5.91056 0 7.42842 0C8.05817 0 8.70407 0.142216 9.25309 0.395045C9.88284 0.679478 10.4157 1.10613 10.8032 1.67499L14.5495 6.84219C14.8886 7.30044 15.1469 7.74289 15.3245 8.18534C15.5345 8.65939 15.6475 9.13345 15.6475 9.5917C15.6475 10.1922 15.4699 10.7768 15.1308 11.3299C14.8886 11.7566 14.5172 12.2148 14.0489 12.6731L12.9509 13.795C12.967 13.8424 12.9832 13.874 12.9993 13.9056C13.1931 14.2374 13.5806 14.8063 14.3234 15.6596C15.1146 16.5445 15.8574 17.3504 16.6002 18.0931C17.5529 19.0096 18.3441 19.7365 19.0869 20.3369C20.0073 21.0954 20.6048 21.4747 20.96 21.6485L20.9277 21.7275L22.1065 20.5898C22.6071 20.0999 23.0915 19.7365 23.5598 19.4994C24.4479 18.9622 25.5782 18.8674 26.7085 19.3256C27.1284 19.4994 27.5805 19.7365 28.0649 20.0683L33.4259 23.7975C34.0233 24.1926 34.4593 24.6982 34.7177 25.2987C34.9599 25.8992 35.0729 26.4522 35.0729 27.0053C35.0729 27.7638 34.8953 28.5223 34.5562 29.2334C34.2171 29.9444 33.7973 30.5607 33.2644 31.1296C32.344 32.1251 31.3429 32.8362 30.1802 33.2944C29.0661 33.7369 27.855 33.9739 26.5793 33.9739ZM7.42842 2.37027C6.54031 2.37027 5.71679 2.74952 4.92556 3.508C4.18278 4.18748 3.66606 4.93017 3.34311 5.73606C3.00401 6.55775 2.84253 7.42685 2.84253 8.35916C2.84253 9.82873 3.19778 11.4247 3.90827 13.0681C4.63491 14.7431 5.6522 16.4813 6.944 18.2195C8.2358 19.9577 9.70522 21.6485 11.32 23.2445C12.9347 24.8089 14.6786 26.2626 16.471 27.5426C18.2149 28.7909 20.0073 29.8022 21.7835 30.5291C24.5448 31.6826 27.1284 31.9513 29.2598 31.0822C30.0833 30.7503 30.81 30.2447 31.472 29.5178C31.8434 29.1227 32.1341 28.6961 32.3763 28.1904C32.5701 27.7954 32.6669 27.3845 32.6669 26.9737C32.6669 26.7209 32.6185 26.468 32.4893 26.1836C32.4409 26.0888 32.344 25.915 32.0372 25.7096L26.6762 21.9803C26.3533 21.7591 26.0626 21.6011 25.7881 21.4905C25.4329 21.3483 25.2875 21.206 24.7385 21.5379C24.4156 21.6959 24.1249 21.9329 23.802 22.249L22.5748 23.4341C21.945 24.0346 20.9762 24.1768 20.2334 23.9081L19.7974 23.7185C19.1354 23.3709 18.3603 22.8336 17.5045 22.1225C16.7294 21.4747 15.8897 20.7162 14.8724 19.7365C14.0812 18.9464 13.29 18.1089 12.4664 17.1766C11.7075 16.3075 11.1585 15.5648 10.8194 14.9485L10.6256 14.4745C10.5287 14.111 10.4964 13.9056 10.4964 13.6844C10.4964 13.1155 10.7064 12.6098 11.11 12.2148L12.3211 10.9823C12.6441 10.6662 12.8863 10.366 13.0477 10.0974C13.1769 9.89194 13.2254 9.71812 13.2254 9.5601C13.2254 9.43368 13.1769 9.24406 13.0962 9.05444C12.9832 8.80161 12.8055 8.51718 12.5795 8.21694L8.83325 3.03395C8.67178 2.81272 8.47801 2.6547 8.2358 2.54409C7.97744 2.43348 7.70293 2.37027 7.42842 2.37027ZM20.9277 21.7433L20.6694 22.8178L21.1053 21.7117C21.0246 21.6959 20.96 21.7117 20.9277 21.7433Z" fill="white"/>
</svg>
