<svg width="16" height="16" viewBox="0 0 16 16" fill="none" xmlns="http://www.w3.org/2000/svg">
<path d="M10.9974 0.5H4.70928C1.97792 0.5 0.349609 2.1275 0.349609 4.8575V11.135C0.349609 13.8725 1.97792 15.5 4.70928 15.5H10.9899C13.7213 15.5 15.3496 13.8725 15.3496 11.1425V4.8575C15.3571 2.1275 13.7288 0.5 10.9974 0.5ZM11.6052 11.9375H4.10148C3.79383 11.9375 3.5387 11.6825 3.5387 11.375C3.5387 11.0675 3.79383 10.8125 4.10148 10.8125H11.6052C11.9129 10.8125 12.168 11.0675 12.168 11.375C12.168 11.6825 11.9129 11.9375 11.6052 11.9375ZM11.6052 8.5625H4.10148C3.79383 8.5625 3.5387 8.3075 3.5387 8C3.5387 7.6925 3.79383 7.4375 4.10148 7.4375H11.6052C11.9129 7.4375 12.168 7.6925 12.168 8C12.168 8.3075 11.9129 8.5625 11.6052 8.5625ZM11.6052 5.1875H4.10148C3.79383 5.1875 3.5387 4.9325 3.5387 4.625C3.5387 4.3175 3.79383 4.0625 4.10148 4.0625H11.6052C11.9129 4.0625 12.168 4.3175 12.168 4.625C12.168 4.9325 11.9129 5.1875 11.6052 5.1875Z" fill="white"/>
</svg>
