<svg width="31" height="42" viewBox="0 0 31 42" fill="none" xmlns="http://www.w3.org/2000/svg">
<path d="M28.2389 21.4176L25.7094 18.8881C25.1081 18.3698 24.7557 17.6026 24.7349 16.7526C24.6935 15.8196 25.0667 14.8866 25.7509 14.2024L28.2389 11.7143C30.3951 9.55808 31.2037 7.48474 30.5195 5.84681C29.8561 4.22961 27.8035 3.33807 24.7764 3.33807H3.11V1.555C3.11 0.704934 2.40507 0 1.555 0C0.704934 0 0 0.704934 0 1.555V39.9117C0 40.7618 0.704934 41.4667 1.555 41.4667C2.40507 41.4667 3.11 40.7618 3.11 39.9117V29.7938H24.7764C27.762 29.7938 29.7731 28.8816 30.4573 27.2436C31.1415 25.6057 30.3537 23.5531 28.2389 21.4176Z" fill="white"/>
</svg>
