<svg width="16" height="17" viewBox="0 0 16 17" fill="none" xmlns="http://www.w3.org/2000/svg">
<path d="M15.1388 5.5561C14.2515 1.72488 10.8459 0 7.85434 0C7.85434 0 7.85434 0 7.84589 0C4.86276 0 1.44867 1.71659 0.561347 5.5478C-0.427386 9.82683 2.24304 13.4507 4.65994 15.7312C5.55572 16.5771 6.70504 17 7.85434 17C9.00363 17 10.1529 16.5771 11.0403 15.7312C13.4572 13.4507 16.1276 9.83512 15.1388 5.5561ZM7.85434 9.71073C6.38391 9.71073 5.19234 8.54146 5.19234 7.09854C5.19234 5.65561 6.38391 4.48634 7.85434 4.48634C9.32476 4.48634 10.5163 5.65561 10.5163 7.09854C10.5163 8.54146 9.32476 9.71073 7.85434 9.71073Z" fill="white"/>
</svg>
