<svg width="16" height="17" viewBox="0 0 16 17" fill="none" xmlns="http://www.w3.org/2000/svg">
<path d="M15.1384 5.5561C14.251 1.72488 10.8454 0 7.85385 0C7.85385 0 7.85385 0 7.8454 0C4.86227 0 1.44818 1.71659 0.560859 5.5478C-0.427874 9.82683 2.24255 13.4507 4.65945 15.7312C5.55523 16.5771 6.70455 17 7.85385 17C9.00314 17 10.1524 16.5771 11.0398 15.7312C13.4567 13.4507 16.1271 9.83512 15.1384 5.5561ZM7.85385 9.71073C6.38342 9.71073 5.19185 8.54146 5.19185 7.09854C5.19185 5.65561 6.38342 4.48634 7.85385 4.48634C9.32427 4.48634 10.5158 5.65561 10.5158 7.09854C10.5158 8.54146 9.32427 9.71073 7.85385 9.71073Z" fill="white"/>
</svg>
