<svg width="16" height="17" viewBox="0 0 16 17" fill="none" xmlns="http://www.w3.org/2000/svg">
<path d="M15.1387 5.5561C14.2514 1.72488 10.8458 0 7.85421 0C7.85421 0 7.85421 0 7.84576 0C4.86264 0 1.44855 1.71659 0.561225 5.5478C-0.427508 9.82683 2.24292 13.4507 4.65982 15.7312C5.5556 16.5771 6.70492 17 7.85421 17C9.00351 17 10.1528 16.5771 11.0401 15.7312C13.457 13.4507 16.1275 9.83512 15.1387 5.5561ZM7.85421 9.71073C6.38379 9.71073 5.19221 8.54146 5.19221 7.09854C5.19221 5.65561 6.38379 4.48634 7.85421 4.48634C9.32464 4.48634 10.5162 5.65561 10.5162 7.09854C10.5162 8.54146 9.32464 9.71073 7.85421 9.71073Z" fill="white"/>
</svg>
