<svg width="36" height="34" viewBox="0 0 36 34" fill="none" xmlns="http://www.w3.org/2000/svg">
<path d="M26.5798 33.9739C24.7552 33.9739 22.8336 33.5473 20.8475 32.7256C18.9098 31.9197 16.9559 30.8135 15.0505 29.4704C13.1613 28.1114 11.3366 26.5945 9.60882 24.9353C7.89719 23.2445 6.34703 21.4589 4.97449 19.6259C3.58581 17.7296 2.47163 15.8334 1.6804 14.0004C0.840733 12.041 0.420898 10.1448 0.420898 8.35916C0.420898 7.12662 0.646963 5.95728 1.08295 4.86696C1.53508 3.74503 2.26171 2.70211 3.24671 1.80141C4.49007 0.600469 5.91105 0 7.42891 0C8.05866 0 8.70456 0.142216 9.25357 0.395045C9.88333 0.679478 10.4162 1.10613 10.8037 1.67499L14.55 6.84219C14.889 7.30044 15.1474 7.74289 15.325 8.18534C15.5349 8.65939 15.648 9.13345 15.648 9.5917C15.648 10.1922 15.4704 10.7768 15.1313 11.3299C14.889 11.7566 14.5177 12.2148 14.0494 12.6731L12.9514 13.795C12.9675 13.8424 12.9836 13.874 12.9998 13.9056C13.1936 14.2374 13.5811 14.8063 14.3239 15.6596C15.1151 16.5445 15.8579 17.3504 16.6007 18.0931C17.5534 19.0096 18.3446 19.7365 19.0874 20.3369C20.0078 21.0954 20.6053 21.4747 20.9605 21.6485L20.9282 21.7275L22.107 20.5898C22.6075 20.0999 23.092 19.7365 23.5603 19.4994C24.4484 18.9622 25.5787 18.8674 26.709 19.3256C27.1288 19.4994 27.581 19.7365 28.0654 20.0683L33.4264 23.7975C34.0238 24.1926 34.4598 24.6982 34.7182 25.2987C34.9604 25.8992 35.0734 26.4522 35.0734 27.0053C35.0734 27.7638 34.8958 28.5223 34.5567 29.2334C34.2176 29.9444 33.7978 30.5607 33.2649 31.1296C32.3445 32.1251 31.3433 32.8362 30.1807 33.2944C29.0665 33.7369 27.8555 33.9739 26.5798 33.9739ZM7.42891 2.37027C6.5408 2.37027 5.71727 2.74952 4.92605 3.508C4.18326 4.18748 3.66654 4.93017 3.34359 5.73606C3.0045 6.55775 2.84302 7.42685 2.84302 8.35916C2.84302 9.82873 3.19827 11.4247 3.90876 13.0681C4.63539 14.7431 5.65268 16.4813 6.94448 18.2195C8.23628 19.9577 9.7057 21.6485 11.3205 23.2445C12.9352 24.8089 14.6791 26.2626 16.4715 27.5426C18.2154 28.7909 20.0078 29.8022 21.784 30.5291C24.5452 31.6826 27.1288 31.9513 29.2603 31.0822C30.0838 30.7503 30.8105 30.2447 31.4725 29.5178C31.8439 29.1227 32.1346 28.6961 32.3768 28.1904C32.5706 27.7954 32.6674 27.3845 32.6674 26.9737C32.6674 26.7209 32.619 26.468 32.4898 26.1836C32.4414 26.0888 32.3445 25.915 32.0377 25.7096L26.6767 21.9803C26.3538 21.7591 26.0631 21.6011 25.7886 21.4905C25.4334 21.3483 25.288 21.206 24.739 21.5379C24.4161 21.6959 24.1254 21.9329 23.8025 22.249L22.5753 23.4341C21.9455 24.0346 20.9767 24.1768 20.2339 23.9081L19.7979 23.7185C19.1358 23.3709 18.3608 22.8336 17.5049 22.1225C16.7299 21.4747 15.8902 20.7162 14.8729 19.7365C14.0817 18.9464 13.2904 18.1089 12.4669 17.1766C11.708 16.3075 11.159 15.5648 10.8199 14.9485L10.6261 14.4745C10.5292 14.111 10.4969 13.9056 10.4969 13.6844C10.4969 13.1155 10.7068 12.6098 11.1105 12.2148L12.3216 10.9823C12.6445 10.6662 12.8868 10.366 13.0482 10.0974C13.1774 9.89194 13.2259 9.71812 13.2259 9.5601C13.2259 9.43368 13.1774 9.24406 13.0967 9.05444C12.9836 8.80161 12.806 8.51718 12.58 8.21694L8.83374 3.03395C8.67227 2.81272 8.4785 2.6547 8.23628 2.54409C7.97792 2.43348 7.70342 2.37027 7.42891 2.37027ZM20.9282 21.7433L20.6699 22.8178L21.1058 21.7117C21.0251 21.6959 20.9605 21.7117 20.9282 21.7433Z" fill="white"/>
</svg>
