<svg width="31" height="31" viewBox="0 0 31 31" fill="none" xmlns="http://www.w3.org/2000/svg">
<path d="M27.73 7.40145L18.881 1.2102C16.469 -0.479721 12.7665 -0.387544 10.4468 1.40992L2.74996 7.41681C1.21367 8.61512 0 11.0732 0 13.0088V23.6092C0 27.5268 3.18012 30.7223 7.09766 30.7223H23.6588C27.5764 30.7223 30.7565 27.5421 30.7565 23.6246V13.2086C30.7565 11.1346 29.4199 8.5844 27.73 7.40145ZM16.5304 24.5771C16.5304 25.207 16.0081 25.7293 15.3782 25.7293C14.7483 25.7293 14.226 25.207 14.226 24.5771V19.9682C14.226 19.3384 14.7483 18.816 15.3782 18.816C16.0081 18.816 16.5304 19.3384 16.5304 19.9682V24.5771Z" fill="white"/>
</svg>
