<svg width="13" height="15" viewBox="0 0 13 15" fill="none" xmlns="http://www.w3.org/2000/svg">
<path d="M11.3677 7.7475L10.3808 6.8325C10.1462 6.645 10.0087 6.3675 10.0006 6.06C9.98441 5.7225 10.13 5.385 10.397 5.1375L11.3677 4.2375C12.209 3.4575 12.5245 2.7075 12.2575 2.115C11.9987 1.53 11.1978 1.2075 10.0168 1.2075H1.56338V0.5625C1.56338 0.255 1.28834 0 0.956677 0C0.625014 0 0.349976 0.255 0.349976 0.5625V14.4375C0.349976 14.745 0.625014 15 0.956677 15C1.28834 15 1.56338 14.745 1.56338 14.4375V10.7775H10.0168C11.1816 10.7775 11.9663 10.4475 12.2333 9.855C12.5002 9.2625 12.1928 8.52 11.3677 7.7475Z" fill="white"/>
</svg>
