<svg width="16" height="15" viewBox="0 0 16 15" fill="none" xmlns="http://www.w3.org/2000/svg">
<path d="M10.9979 0H4.70977C1.97841 0 0.350098 1.6275 0.350098 4.3575V10.635C0.350098 13.3725 1.97841 15 4.70977 15H10.9904C13.7218 15 15.3501 13.3725 15.3501 10.6425V4.3575C15.3576 1.6275 13.7293 0 10.9979 0ZM11.6057 11.4375H4.10197C3.79431 11.4375 3.53919 11.1825 3.53919 10.875C3.53919 10.5675 3.79431 10.3125 4.10197 10.3125H11.6057C11.9134 10.3125 12.1685 10.5675 12.1685 10.875C12.1685 11.1825 11.9134 11.4375 11.6057 11.4375ZM11.6057 8.0625H4.10197C3.79431 8.0625 3.53919 7.8075 3.53919 7.5C3.53919 7.1925 3.79431 6.9375 4.10197 6.9375H11.6057C11.9134 6.9375 12.1685 7.1925 12.1685 7.5C12.1685 7.8075 11.9134 8.0625 11.6057 8.0625ZM11.6057 4.6875H4.10197C3.79431 4.6875 3.53919 4.4325 3.53919 4.125C3.53919 3.8175 3.79431 3.5625 4.10197 3.5625H11.6057C11.9134 3.5625 12.1685 3.8175 12.1685 4.125C12.1685 4.4325 11.9134 4.6875 11.6057 4.6875Z" fill="white"/>
</svg>
