<svg width="13" height="15" viewBox="0 0 13 15" fill="none" xmlns="http://www.w3.org/2000/svg">
<path d="M11.3678 7.7475L10.3809 6.8325C10.1463 6.645 10.0088 6.3675 10.0007 6.06C9.98453 5.7225 10.1301 5.385 10.3971 5.1375L11.3678 4.2375C12.2091 3.4575 12.5246 2.7075 12.2576 2.115C11.9988 1.53 11.1979 1.2075 10.0169 1.2075H1.5635V0.5625C1.5635 0.255 1.28846 0 0.9568 0C0.625136 0 0.350098 0.255 0.350098 0.5625V14.4375C0.350098 14.745 0.625136 15 0.9568 15C1.28846 15 1.5635 14.745 1.5635 14.4375V10.7775H10.0169C11.1818 10.7775 11.9664 10.4475 12.2334 9.855C12.5003 9.2625 12.1929 8.52 11.3678 7.7475Z" fill="white"/>
</svg>
