<svg width="16" height="15" viewBox="0 0 16 15" fill="none" xmlns="http://www.w3.org/2000/svg">
<path d="M13.8736 3.61372L9.55789 0.590874C8.38157 -0.234222 6.57587 -0.189217 5.44452 0.688385L1.69077 3.62122C0.941518 4.20629 0.349609 5.40643 0.349609 6.3515V11.5271C0.349609 13.4398 1.90056 15 3.81115 15H11.8881C13.7987 15 15.3496 13.4473 15.3496 11.5346V6.44901C15.3496 5.43643 14.6978 4.19129 13.8736 3.61372ZM8.41154 11.9997C8.41154 12.3072 8.15679 12.5622 7.8496 12.5622C7.54241 12.5622 7.28766 12.3072 7.28766 11.9997V9.74939C7.28766 9.44186 7.54241 9.18683 7.8496 9.18683C8.15679 9.18683 8.41154 9.44186 8.41154 9.74939V11.9997Z" fill="white"/>
</svg>
