<svg width="31" height="31" viewBox="0 0 31 31" fill="none" xmlns="http://www.w3.org/2000/svg">
<path d="M21.8326 0H8.93922C3.33874 0 0 3.33874 0 8.93922V21.8172C0 27.4331 3.33874 30.7718 8.93922 30.7718H21.8172C27.4177 30.7718 30.7564 27.4331 30.7564 21.8326V8.93922C30.7718 3.33874 27.4331 0 21.8326 0ZM23.0789 23.4635H7.69296C7.06214 23.4635 6.53901 22.9404 6.53901 22.3096C6.53901 21.6788 7.06214 21.1556 7.69296 21.1556H23.0789C23.7097 21.1556 24.2328 21.6788 24.2328 22.3096C24.2328 22.9404 23.7097 23.4635 23.0789 23.4635ZM23.0789 16.5399H7.69296C7.06214 16.5399 6.53901 16.0167 6.53901 15.3859C6.53901 14.7551 7.06214 14.232 7.69296 14.232H23.0789C23.7097 14.232 24.2328 14.7551 24.2328 15.3859C24.2328 16.0167 23.7097 16.5399 23.0789 16.5399ZM23.0789 9.6162H7.69296C7.06214 9.6162 6.53901 9.09308 6.53901 8.46225C6.53901 7.83143 7.06214 7.30831 7.69296 7.30831H23.0789C23.7097 7.30831 24.2328 7.83143 24.2328 8.46225C24.2328 9.09308 23.7097 9.6162 23.0789 9.6162Z" fill="white"/>
</svg>
