<svg width="66" height="67" viewBox="0 0 66 67" fill="none" xmlns="http://www.w3.org/2000/svg">
<path d="M46.8503 0H19.1826C7.16457 0 0 7.16457 0 19.1826V46.8173C0 58.8683 7.16457 66.0329 19.1826 66.0329H46.8173C58.8353 66.0329 65.9999 58.8683 65.9999 46.8503V19.1826C66.0329 7.16457 58.8683 0 46.8503 0ZM49.5247 50.3501H16.5082C15.1546 50.3501 14.032 49.2275 14.032 47.8738C14.032 46.5202 15.1546 45.3976 16.5082 45.3976H49.5247C50.8784 45.3976 52.0009 46.5202 52.0009 47.8738C52.0009 49.2275 50.8784 50.3501 49.5247 50.3501ZM49.5247 35.4927H16.5082C15.1546 35.4927 14.032 34.3701 14.032 33.0164C14.032 31.6628 15.1546 30.5402 16.5082 30.5402H49.5247C50.8784 30.5402 52.0009 31.6628 52.0009 33.0164C52.0009 34.3701 50.8784 35.4927 49.5247 35.4927ZM49.5247 20.6353H16.5082C15.1546 20.6353 14.032 19.5127 14.032 18.159C14.032 16.8054 15.1546 15.6828 16.5082 15.6828H49.5247C50.8784 15.6828 52.0009 16.8054 52.0009 18.159C52.0009 19.5127 50.8784 20.6353 49.5247 20.6353Z" fill="#010101"/>
</svg>
