<svg width="16" height="15" viewBox="0 0 16 15" fill="none" xmlns="http://www.w3.org/2000/svg">
<path d="M10.9978 0H4.70965C1.97829 0 0.349976 1.6275 0.349976 4.3575V10.635C0.349976 13.3725 1.97829 15 4.70965 15H10.9903C13.7216 15 15.3499 13.3725 15.3499 10.6425V4.3575C15.3575 1.6275 13.7291 0 10.9978 0ZM11.6056 11.4375H4.10185C3.79419 11.4375 3.53906 11.1825 3.53906 10.875C3.53906 10.5675 3.79419 10.3125 4.10185 10.3125H11.6056C11.9132 10.3125 12.1684 10.5675 12.1684 10.875C12.1684 11.1825 11.9132 11.4375 11.6056 11.4375ZM11.6056 8.0625H4.10185C3.79419 8.0625 3.53906 7.8075 3.53906 7.5C3.53906 7.1925 3.79419 6.9375 4.10185 6.9375H11.6056C11.9132 6.9375 12.1684 7.1925 12.1684 7.5C12.1684 7.8075 11.9132 8.0625 11.6056 8.0625ZM11.6056 4.6875H4.10185C3.79419 4.6875 3.53906 4.4325 3.53906 4.125C3.53906 3.8175 3.79419 3.5625 4.10185 3.5625H11.6056C11.9132 3.5625 12.1684 3.8175 12.1684 4.125C12.1684 4.4325 11.9132 4.6875 11.6056 4.6875Z" fill="white"/>
</svg>
