<svg width="16" height="15" viewBox="0 0 16 15" fill="none" xmlns="http://www.w3.org/2000/svg">
<path d="M10.9974 0H4.70928C1.97792 0 0.349609 1.6275 0.349609 4.3575V10.635C0.349609 13.3725 1.97792 15 4.70928 15H10.9899C13.7213 15 15.3496 13.3725 15.3496 10.6425V4.3575C15.3571 1.6275 13.7288 0 10.9974 0ZM11.6052 11.4375H4.10148C3.79383 11.4375 3.5387 11.1825 3.5387 10.875C3.5387 10.5675 3.79383 10.3125 4.10148 10.3125H11.6052C11.9129 10.3125 12.168 10.5675 12.168 10.875C12.168 11.1825 11.9129 11.4375 11.6052 11.4375ZM11.6052 8.0625H4.10148C3.79383 8.0625 3.5387 7.8075 3.5387 7.5C3.5387 7.1925 3.79383 6.9375 4.10148 6.9375H11.6052C11.9129 6.9375 12.168 7.1925 12.168 7.5C12.168 7.8075 11.9129 8.0625 11.6052 8.0625ZM11.6052 4.6875H4.10148C3.79383 4.6875 3.5387 4.4325 3.5387 4.125C3.5387 3.8175 3.79383 3.5625 4.10148 3.5625H11.6052C11.9129 3.5625 12.168 3.8175 12.168 4.125C12.168 4.4325 11.9129 4.6875 11.6052 4.6875Z" fill="white"/>
</svg>
