<svg width="67" height="45" viewBox="0 0 67 45" fill="none" xmlns="http://www.w3.org/2000/svg">
<path d="M62.8333 0.205078H4.16667C2.15 0.205078 0.5 1.85493 0.5 3.8716V26.4583C0.5 37.4583 6 44.7916 18.8333 44.7916H48.1667C61 44.7916 66.5 37.4583 66.5 26.4583V3.8716C66.5 1.85493 64.85 0.205078 62.8333 0.205078ZM23.27 30.8949C23.0867 31.0416 22.9033 31.2249 22.72 31.3349C22.5 31.4816 22.28 31.5916 22.06 31.6649C21.84 31.7749 21.62 31.8483 21.4 31.8849C21.1433 31.9216 20.9233 31.9583 20.6667 31.9583C20.19 31.9583 19.7133 31.8483 19.2733 31.6649C18.7967 31.4816 18.43 31.2249 18.0633 30.8949C17.4033 30.1983 17 29.2449 17 28.2916C17 27.3383 17.4033 26.3849 18.0633 25.6883C18.43 25.3583 18.7967 25.1016 19.2733 24.9183C19.9333 24.6249 20.6667 24.5516 21.4 24.6983C21.62 24.7349 21.84 24.8083 22.06 24.9183C22.28 24.9916 22.5 25.1016 22.72 25.2483C22.9033 25.3949 23.0867 25.5416 23.27 25.6883C23.93 26.3849 24.3333 27.3383 24.3333 28.2916C24.3333 29.2449 23.93 30.1983 23.27 30.8949ZM23.27 18.0616C22.5733 18.7216 21.62 19.1249 20.6667 19.1249C19.7133 19.1249 18.76 18.7216 18.0633 18.0616C17.4033 17.3649 17 16.4116 17 15.4583C17 14.5049 17.4033 13.5516 18.0633 12.8549C19.09 11.8283 20.7033 11.4983 22.06 12.0849C22.5367 12.2683 22.94 12.5249 23.27 12.8549C23.93 13.5516 24.3333 14.5049 24.3333 15.4583C24.3333 16.4116 23.93 17.3649 23.27 18.0616ZM36.1033 30.8949C35.4067 31.5549 34.4533 31.9583 33.5 31.9583C32.5467 31.9583 31.5933 31.5549 30.8967 30.8949C30.2367 30.1983 29.8333 29.2449 29.8333 28.2916C29.8333 27.3383 30.2367 26.3849 30.8967 25.6883C32.2533 24.3316 34.7467 24.3316 36.1033 25.6883C36.7633 26.3849 37.1667 27.3383 37.1667 28.2916C37.1667 29.2449 36.7633 30.1983 36.1033 30.8949ZM36.1033 18.0616C35.92 18.2083 35.7367 18.3549 35.5533 18.5016C35.3333 18.6483 35.1133 18.7583 34.8933 18.8316C34.6733 18.9416 34.4533 19.0149 34.2333 19.0516C33.9767 19.0883 33.7567 19.1249 33.5 19.1249C32.5467 19.1249 31.5933 18.7216 30.8967 18.0616C30.2367 17.3649 29.8333 16.4116 29.8333 15.4583C29.8333 14.5049 30.2367 13.5516 30.8967 12.8549C31.2267 12.5249 31.63 12.2683 32.1067 12.0849C33.4633 11.4983 35.0767 11.8283 36.1033 12.8549C36.7633 13.5516 37.1667 14.5049 37.1667 15.4583C37.1667 16.4116 36.7633 17.3649 36.1033 18.0616ZM48.9367 30.8949C48.24 31.5549 47.2867 31.9583 46.3333 31.9583C45.38 31.9583 44.4267 31.5549 43.73 30.8949C43.07 30.1983 42.6667 29.2449 42.6667 28.2916C42.6667 27.3383 43.07 26.3849 43.73 25.6883C45.0867 24.3316 47.58 24.3316 48.9367 25.6883C49.5967 26.3849 50 27.3383 50 28.2916C50 29.2449 49.5967 30.1983 48.9367 30.8949ZM48.9367 18.0616C48.7533 18.2083 48.57 18.3549 48.3867 18.5016C48.1667 18.6483 47.9467 18.7583 47.7267 18.8316C47.5067 18.9416 47.2867 19.0149 47.0667 19.0516C46.81 19.0883 46.5533 19.1249 46.3333 19.1249C45.38 19.1249 44.4267 18.7216 43.73 18.0616C43.07 17.3649 42.6667 16.4116 42.6667 15.4583C42.6667 14.5049 43.07 13.5516 43.73 12.8549C44.0967 12.5249 44.4633 12.2683 44.94 12.0849C45.6 11.7916 46.3333 11.7183 47.0667 11.8649C47.2867 11.9016 47.5067 11.9749 47.7267 12.0849C47.9467 12.1583 48.1667 12.2683 48.3867 12.4149L48.9367 12.8549C49.5967 13.5516 50 14.5049 50 15.4583C50 16.4116 49.5967 17.3649 48.9367 18.0616Z" fill="#010101"/>
</svg>
