<svg width="36" height="34" viewBox="0 0 36 34" fill="none" xmlns="http://www.w3.org/2000/svg">
<path d="M26.5796 33.9739C24.7549 33.9739 22.8334 33.5473 20.8472 32.7256C18.9095 31.9197 16.9557 30.8135 15.0503 29.4704C13.161 28.1114 11.3364 26.5945 9.60858 24.9353C7.89694 23.2445 6.34678 21.4589 4.97425 19.6259C3.58556 17.7296 2.47139 15.8334 1.68016 14.0004C0.840489 12.041 0.420654 10.1448 0.420654 8.35916C0.420654 7.12662 0.646719 5.95728 1.0827 4.86696C1.53483 3.74503 2.26147 2.70211 3.24646 1.80141C4.48982 0.600469 5.9108 0 7.42867 0C8.05842 0 8.70432 0.142216 9.25333 0.395045C9.88308 0.679478 10.416 1.10613 10.8035 1.67499L14.5497 6.84219C14.8888 7.30044 15.1472 7.74289 15.3248 8.18534C15.5347 8.65939 15.6477 9.13345 15.6477 9.5917C15.6477 10.1922 15.4701 10.7768 15.131 11.3299C14.8888 11.7566 14.5174 12.2148 14.0491 12.6731L12.9511 13.795C12.9673 13.8424 12.9834 13.874 12.9995 13.9056C13.1933 14.2374 13.5809 14.8063 14.3236 15.6596C15.1149 16.5445 15.8577 17.3504 16.6004 18.0931C17.5531 19.0096 18.3444 19.7365 19.0872 20.3369C20.0076 21.0954 20.605 21.4747 20.9603 21.6485L20.928 21.7275L22.1067 20.5898C22.6073 20.0999 23.0917 19.7365 23.56 19.4994C24.4481 18.9622 25.5784 18.8674 26.7088 19.3256C27.1286 19.4994 27.5807 19.7365 28.0652 20.0683L33.4261 23.7975C34.0236 24.1926 34.4596 24.6982 34.7179 25.2987C34.9601 25.8992 35.0732 26.4522 35.0732 27.0053C35.0732 27.7638 34.8955 28.5223 34.5564 29.2334C34.2173 29.9444 33.7975 30.5607 33.2646 31.1296C32.3442 32.1251 31.3431 32.8362 30.1805 33.2944C29.0663 33.7369 27.8552 33.9739 26.5796 33.9739ZM7.42867 2.37027C6.54055 2.37027 5.71703 2.74952 4.9258 3.508C4.18302 4.18748 3.6663 4.93017 3.34335 5.73606C3.00425 6.55775 2.84278 7.42685 2.84278 8.35916C2.84278 9.82873 3.19802 11.4247 3.90851 13.0681C4.63515 14.7431 5.65244 16.4813 6.94424 18.2195C8.23604 19.9577 9.70546 21.6485 11.3202 23.2445C12.935 24.8089 14.6789 26.2626 16.4713 27.5426C18.2152 28.7909 20.0076 29.8022 21.7838 30.5291C24.545 31.6826 27.1286 31.9513 29.2601 31.0822C30.0836 30.7503 30.8102 30.2447 31.4723 29.5178C31.8437 29.1227 32.1343 28.6961 32.3765 28.1904C32.5703 27.7954 32.6672 27.3845 32.6672 26.9737C32.6672 26.7209 32.6187 26.468 32.4896 26.1836C32.4411 26.0888 32.3442 25.915 32.0374 25.7096L26.6765 21.9803C26.3535 21.7591 26.0629 21.6011 25.7884 21.4905C25.4331 21.3483 25.2878 21.206 24.7388 21.5379C24.4158 21.6959 24.1252 21.9329 23.8022 22.249L22.575 23.4341C21.9453 24.0346 20.9764 24.1768 20.2336 23.9081L19.7976 23.7185C19.1356 23.3709 18.3605 22.8336 17.5047 22.1225C16.7296 21.4747 15.8899 20.7162 14.8727 19.7365C14.0814 18.9464 13.2902 18.1089 12.4667 17.1766C11.7077 16.3075 11.1587 15.5648 10.8196 14.9485L10.6259 14.4745C10.529 14.111 10.4967 13.9056 10.4967 13.6844C10.4967 13.1155 10.7066 12.6098 11.1103 12.2148L12.3214 10.9823C12.6443 10.6662 12.8865 10.366 13.048 10.0974C13.1772 9.89194 13.2256 9.71812 13.2256 9.5601C13.2256 9.43368 13.1772 9.24406 13.0964 9.05444C12.9834 8.80161 12.8058 8.51718 12.5797 8.21694L8.8335 3.03395C8.67202 2.81272 8.47825 2.6547 8.23604 2.54409C7.97768 2.43348 7.70317 2.37027 7.42867 2.37027ZM20.928 21.7433L20.6696 22.8178L21.1056 21.7117C21.0249 21.6959 20.9603 21.7117 20.928 21.7433Z" fill="white"/>
</svg>
